<?xml version="1.0" encoding="utf-8"?>
<!-- Generator: Adobe Illustrator 18.0.0, SVG Export Plug-In . SVG Version: 6.00 Build 0)  -->
<!DOCTYPE svg PUBLIC "-//W3C//DTD SVG 1.1//EN" "http://www.w3.org/Graphics/SVG/1.1/DTD/svg11.dtd">
<svg version="1.1" id="图层_1" xmlns="http://www.w3.org/2000/svg" xmlns:xlink="http://www.w3.org/1999/xlink" x="0px" y="0px"
	 viewBox="0 0 20 20" enable-background="new 0 0 20 20" xml:space="preserve">
<g>
	<path d="M4.4,3.5C4.4,3.5,4.4,3.5,4.4,3.5l3.4,0c0.4,0,0.7-0.3,0.7-0.6S8.2,2.2,7.8,2.2H4.4c-1.2,0-2.2,1-2.2,2.2v3.4
		c0,0.4,0.3,0.6,0.7,0.6s0.7-0.3,0.7-0.6V4.5c0,0,0,0,0,0l4.9,4.9c0.1,0.1,0.3,0.2,0.5,0.2s0.3-0.1,0.5-0.2c0.3-0.3,0.3-0.7,0-0.9
		L4.4,3.5z"/>
	<path d="M17.2,11.5c-0.4,0-0.7,0.3-0.7,0.6v3.4c0,0,0,0,0,0l-4.9-4.9c-0.3-0.3-0.7-0.3-0.9,0s-0.3,0.7,0,0.9l4.9,4.9c0,0,0,0,0,0
		h-3.4c-0.4,0-0.7,0.3-0.7,0.7s0.3,0.7,0.7,0.7h3.4c1.2,0,2.2-1,2.2-2.2v-3.4C17.8,11.8,17.5,11.5,17.2,11.5z"/>
</g>
</svg>
