<?xml version="1.0" encoding="utf-8"?>
<!-- Generator: Adobe Illustrator 18.0.0, SVG Export Plug-In . SVG Version: 6.00 Build 0)  -->
<!DOCTYPE svg PUBLIC "-//W3C//DTD SVG 1.1//EN" "http://www.w3.org/Graphics/SVG/1.1/DTD/svg11.dtd">
<svg version="1.1" id="图层_1" xmlns="http://www.w3.org/2000/svg" xmlns:xlink="http://www.w3.org/1999/xlink" x="0px" y="0px"
	 viewBox="0 0 20 20" enable-background="new 0 0 20 20" xml:space="preserve">
<g>
	<path d="M15.4,1.9H4.6c-1.5,0-2.6,1.2-2.6,2.6v10.8c0,1.5,1.2,2.7,2.6,2.7h10.8c1.5,0,2.7-1.2,2.7-2.7V4.6
		C18.1,3.1,16.9,1.9,15.4,1.9z M16.7,15.4c0,0.7-0.6,1.3-1.3,1.3H4.6c-0.7,0-1.4-0.6-1.4-1.3V4.6c0-0.7,0.6-1.4,1.4-1.4h10.8
		c0.7,0,1.3,0.6,1.3,1.4V15.4z"/>
	<path d="M11.9,8.6c-0.2-0.4-0.9-0.4-1.1,0L9,11.8l-0.8-1.4C8,10,7.4,10,7.1,10.4l-1.8,3.4c-0.2,0.4,0.1,0.9,0.6,0.9h1.6h3.2h3.5
		c0.5,0,0.8-0.5,0.6-0.9L11.9,8.6z"/>
	<circle cx="6.7" cy="6.4" r="1.4"/>
</g>
</svg>
