<?xml version="1.0" encoding="utf-8"?>
<!-- Generator: Adobe Illustrator 18.0.0, SVG Export Plug-In . SVG Version: 6.00 Build 0)  -->
<!DOCTYPE svg PUBLIC "-//W3C//DTD SVG 1.1//EN" "http://www.w3.org/Graphics/SVG/1.1/DTD/svg11.dtd">
<svg version="1.1" id="图层_1" xmlns="http://www.w3.org/2000/svg" xmlns:xlink="http://www.w3.org/1999/xlink" x="0px" y="0px"
	 viewBox="0 0 20 20" enable-background="new 0 0 20 20" xml:space="preserve">
<path d="M17.3,11.3l-0.9-0.5c0.1-0.5,0.1-1.1,0-1.7l0.9-0.5c1-0.5,1.3-1.8,0.7-2.7l-0.5-0.9c-0.6-1-1.8-1.3-2.7-0.7l-0.9,0.5
	C13.5,4.5,13,4.2,12.5,4V3c0-1.1-0.9-2-2-2h-1c-1.1,0-2,0.9-2,2v1C7,4.2,6.5,4.5,6.1,4.8L5.2,4.3C4.2,3.8,3,4.1,2.5,5.1L2,5.9
	c-0.5,1-0.2,2.2,0.7,2.7l0.9,0.5c-0.1,0.5-0.1,1.1,0,1.7l-0.9,0.5c-1,0.5-1.3,1.8-0.7,2.7l0.5,0.9c0.6,1,1.8,1.3,2.7,0.7l0.9-0.5
	C6.5,15.5,7,15.8,7.5,16v1c0,1.1,0.9,2,2,2h1c1.1,0,2-0.9,2-2v-1c0.5-0.2,1-0.5,1.4-0.8l0.9,0.5c1,0.6,2.2,0.2,2.7-0.7l0.5-0.9
	C18.6,13.1,18.3,11.9,17.3,11.3z M10,13c-1.7,0-3-1.3-3-3s1.3-3,3-3s3,1.3,3,3S11.7,13,10,13z"/>
</svg>
