<?xml version="1.0" encoding="utf-8"?>
<!-- Generator: Adobe Illustrator 18.0.0, SVG Export Plug-In . SVG Version: 6.00 Build 0)  -->
<!DOCTYPE svg PUBLIC "-//W3C//DTD SVG 1.1//EN" "http://www.w3.org/Graphics/SVG/1.1/DTD/svg11.dtd">
<svg version="1.1" id="图层_1" xmlns="http://www.w3.org/2000/svg" xmlns:xlink="http://www.w3.org/1999/xlink" x="0px" y="0px"
	 viewBox="0 0 21 17" enable-background="new 0 0 21 17" xml:space="preserve">
<g>
	<path d="M6.5,0C4.8,0,3.2,0.6,2,1.8C0.9,3,0.1,4.4,0.1,6.1v9.6v0c0,0.7,0.3,1.3,1,1.3c0.7,0,1.1-0.6,1.1-1.3c0,0,0,0,0,0v-4.8
		c1.6,0.8,2.5,1.2,3.9,1.2c1.7,0,3.2-0.6,4.4-1.8c1.2-1.2,1.8-2.6,1.8-4.3c0-1.7-0.6-3.1-1.7-4.3C9.5,0.6,8.1,0,6.5,0z M9,8.6
		C8.3,9.3,7.5,9.7,6.5,9.7c-1,0-1.9-0.4-2.6-1.1C3.2,7.9,2.8,7.1,2.8,6.1c0-1,0.4-1.9,1.1-2.6c0.7-0.7,1.6-1.1,2.6-1.1
		c1,0,1.9,0.4,2.6,1.1c0.7,0.7,1.1,1.6,1.1,2.6C10.1,7.1,9.7,7.9,9,8.6z"/>
	<path d="M19.7,14.5C19.7,14.5,19.7,14.5,19.7,14.5c-0.9,0-1.9-0.4-2.6-1.1c-0.7-0.7-1.2-1.6-1.2-2.6V7.2h2.6c0,0,0,0,0,0
		c0.6,0,1.2-0.7,1.2-1.3c0-0.7-0.5-1.3-1.2-1.3h-2.6V1.9c0-0.1,0-1.3-1.3-1.4c-0.7,0-1.4,0.5-1.4,1.2c0,0.1,0,0.1,0,0.2v9.1
		c0,1.7,0.8,3.1,2,4.3c1,1,2.3,1.6,3.7,1.7c0.1,0,0.4,0,0.6,0c0,0,0.1,0,0.1,0c0.7,0,1.2-0.5,1.2-1.2C20.9,15.1,20.3,14.5,19.7,14.5
		z"/>
</g>
</svg>
