<?xml version="1.0" encoding="utf-8"?>
<!-- Generator: Adobe Illustrator 18.0.0, SVG Export Plug-In . SVG Version: 6.00 Build 0)  -->
<!DOCTYPE svg PUBLIC "-//W3C//DTD SVG 1.1//EN" "http://www.w3.org/Graphics/SVG/1.1/DTD/svg11.dtd">
<svg version="1.1" id="图层_1" xmlns="http://www.w3.org/2000/svg" xmlns:xlink="http://www.w3.org/1999/xlink" x="0px" y="0px"
	 viewBox="0 0 20 20" enable-background="new 0 0 20 20" xml:space="preserve">
<g>
	<path d="M5.8,6.7c0.3-0.2,0.4-0.7,0.1-1c-0.2-0.3-0.7-0.4-1-0.1L1.6,8C1,8.5,0.6,9.2,0.6,9.9c0,0.8,0.3,1.4,0.9,1.9l3.4,2.5
		c0.1,0.1,0.3,0.1,0.4,0.1c0.2,0,0.4-0.1,0.6-0.3c0.2-0.3,0.2-0.7-0.1-1l-3.4-2.5C2.1,10.5,2,10.2,2,9.9c0-0.3,0.1-0.6,0.4-0.8
		L5.8,6.7z"/>
	<path d="M18.5,8l-3.4-2.5c-0.3-0.2-0.7-0.2-1,0.1c-0.2,0.3-0.2,0.7,0.1,1l3.4,2.5C17.9,9.3,18,9.6,18,9.9c0,0.3-0.1,0.6-0.4,0.8
		l-3.4,2.5c-0.3,0.2-0.4,0.7-0.1,1c0.1,0.2,0.3,0.3,0.6,0.3c0.1,0,0.3,0,0.4-0.1l3.4-2.5c0.6-0.4,0.9-1.1,0.9-1.9
		C19.4,9.1,19.1,8.4,18.5,8z"/>
	<path d="M12.7,2.1c-0.4-0.1-0.8,0.1-0.9,0.4L6.9,16.9c-0.1,0.4,0.1,0.8,0.4,0.9c0.1,0,0.2,0,0.2,0c0.3,0,0.6-0.2,0.7-0.5L13.1,3
		C13.2,2.6,13,2.2,12.7,2.1z"/>
</g>
</svg>
