<?xml version="1.0" encoding="utf-8"?>
<!-- Generator: Adobe Illustrator 18.0.0, SVG Export Plug-In . SVG Version: 6.00 Build 0)  -->
<!DOCTYPE svg PUBLIC "-//W3C//DTD SVG 1.1//EN" "http://www.w3.org/Graphics/SVG/1.1/DTD/svg11.dtd">
<svg version="1.1" id="图层_1" xmlns="http://www.w3.org/2000/svg" xmlns:xlink="http://www.w3.org/1999/xlink" x="0px" y="0px"
	 viewBox="0 0 180 45" enable-background="new 0 0 180 45" xml:space="preserve">
<g>
	<path d="M13.5,0.7c-3.3,0-6.5,1.2-8.8,3.5c-2.4,2.4-3.8,5.2-3.8,8.6v19.3c0,0,0,0,0,0c0,1.4,0.7,2.6,2,2.6c1.4,0,2.2-1.3,2.2-2.7
		c0-0.1,0,0.1,0,0v-9.5c3.2,1.6,5.1,2.4,7.9,2.4c3.3,0,6.5-1.2,8.9-3.5c2.4-2.4,3.7-5.2,3.7-8.6c0-3.3-1.1-6.2-3.5-8.6
		C19.6,1.9,16.9,0.7,13.5,0.7z M18.6,17.9c-1.4,1.4-3.1,2.1-5.1,2.1c-2,0-3.7-0.7-5.1-2.1c-1.4-1.4-2.1-3.1-2.1-5.1
		c0-2,0.7-3.7,2.1-5.1c1.4-1.4,3.1-2.1,5.1-2.1c2,0,3.7,0.7,5.1,2.1c1.4,1.4,2.1,3.1,2.1,5.1C20.8,14.8,20.1,16.5,18.6,17.9z"/>
	<path d="M107.7,10.4c-3.3,0-6.2,1.2-8.6,3.5c-2.4,2.4-3.6,5.2-3.6,8.6c0,3.3,1.2,6.2,3.6,8.6c2.4,2.4,5.2,3.5,8.6,3.5
		c2.8,0,5.2-0.8,7.3-2.4c0,2-0.6,3.7-2.1,5.1c-1.4,1.4-2.5,2.1-5.1,2.1c0,0-0.8,0.1-1.1,0.2c-0.3,0.1-0.6,0.3-0.9,0.5c0,0,0,0,0,0
		c0,0-0.1,0.1-0.1,0.1c0,0,0,0,0,0c0,0-0.1,0.1-0.1,0.1c0,0,0,0,0,0.1c0,0-0.1,0.1-0.1,0.1c0,0,0,0.1-0.1,0.1c0,0-0.1,0.1-0.1,0.2
		c0,0,0,0.1-0.1,0.1c0,0,0,0.1,0,0.1c0,0,0,0.1,0,0.1c0,0,0,0.1,0,0.1c0,0,0,0.1,0,0.1c0,0,0,0.1,0,0.1c0,0,0,0.1,0,0.2
		c0,0,0,0,0,0.1c0,0.1,0,0.2,0,0.2c0,1.3,1.1,2.4,2.4,2.4c0,0,0,0,0,0c0,0,0,0,0,0c3.5,0,5.7-1.2,8-3.6c2.4-2.4,3-5.2,3-8.6v-9.7
		c0-3.3-0.6-6.2-3-8.6C113.3,11.6,111,10.4,107.7,10.4z M112.8,27.6c-1.4,1.4-3.1,2.1-5.1,2.1c-2,0-3.7-0.7-5.1-2.1
		c-1.4-1.4-2.1-3.1-2.1-5.1c0-2,0.7-3.7,2.1-5.1c1.4-1.4,3.1-2.1,5.1-2.1c2,0,3.7,0.7,5.1,2.1c1.4,1.4,2.1,3.1,2.1,5.1
		C114.9,24.5,114.2,26.2,112.8,27.6z"/>
	<circle cx="124.1" cy="4.9" r="2.9"/>
	<path d="M40,29.8C40,29.8,39.9,29.8,40,29.8c-1.8,0-3.9-0.8-5.2-2.1c-1.4-1.4-2.4-3.1-2.4-5.1v-7.4h5.2c0,0,0,0,0,0l0,0
		c1.3,0,2.4-1.3,2.4-2.7c0-1.3-1.1-2.6-2.4-2.6c0,0,0,0,0,0h-5.2V4.4c0-0.1-0.1-2.7-2.5-2.8c-1.4-0.1-2.7,1.1-2.7,2.4
		c0,0.1,0,0.2,0,0.3v18.2c0,3.3,1.6,6.2,4,8.6c2,2,4.6,3.2,7.3,3.5c0.1,0,0.7,0.1,1.3,0.1c0,0,0.1,0,0.2,0c1.3,0,2.4-1.1,2.4-2.4
		C42.4,30.8,41.3,29.8,40,29.8z"/>
	<path d="M126.2,32.3l0-19.7c0,0,0-2-2.3-2c-2,0-2.1,2-2.1,2s0,19.6,0,19.7c0.1,2.4,2.2,2.4,2.2,2.4
		C125.5,34.8,126.3,33.4,126.2,32.3z"/>
	<path d="M63.8,24.6c1.5,0,2.8-1,2.9-2.5c0.2-1.7-2.2-11.7-11.9-11.8c-3.3,0-6.1,1.2-8.5,3.6c-2.4,2.4-3.5,5.2-3.5,8.6
		c0,3.3,1.2,6.2,3.6,8.6c2.4,2.4,5.2,3.6,8.6,3.6c3.1,0,6.3-1,8.7-2.9c0,0,0,0,0,0c0.6-0.5,1-1.2,1-2c0-1.4-1.2-2.6-2.6-2.6
		c-0.7,0-1.4,0.3-1.8,0.8c0,0,0,0,0,0c-1.5,1.3-3.2,1.8-5.2,1.8c-3.4,0.1-6.2-1.9-6.9-5.1H63.8C63.8,24.6,63.7,24.6,63.8,24.6z
		 M55,15.5c3.8-0.1,6.5,2.8,6.9,4.9H48.1C48.4,18.3,51.1,15.6,55,15.5z"/>
	<path d="M176.2,24.6c1.5,0,2.8-1,2.9-2.5c0.2-1.7-2.2-11.7-11.9-11.8c-3.3,0-6.1,1.2-8.5,3.6c-2.4,2.4-3.5,5.2-3.5,8.6
		c0,3.3,1.2,6.2,3.6,8.6c2.4,2.4,5.2,3.6,8.6,3.6c3.1,0,6.3-1,8.7-2.9c0,0,0,0,0,0c0.6-0.5,1-1.2,1-2c0-1.4-1.2-2.6-2.6-2.6
		c-0.7,0-1.4,0.3-1.8,0.8c0,0,0,0,0,0c-1.5,1.3-3.2,1.8-5.2,1.8c-3.4,0.1-6.2-1.9-6.9-5.1H176.2C176.2,24.6,176.1,24.6,176.2,24.6z
		 M167.4,15.5c3.8-0.1,6.5,2.8,6.9,4.9h-13.8C160.8,18.3,163.5,15.6,167.4,15.5z"/>
	<path d="M152.6,31.4v-8.9c0-3.3-1-6.2-3.4-8.6c-2.4-2.4-5.1-3.5-8.4-3.5c-3.3,0-6.2,1.2-8.5,3.5c-2.4,2.4-3.5,5.2-3.5,8.6v9V32
		c0,0,0,0,0,0c0,0,0,0,0,0c0,0.5,0.5,2.4,2.5,2.4c2,0,2.7-1.6,2.7-2.4c0-0.1,0-0.1,0-0.2c0,0,0,0,0,0c0,0,0-0.1,0-0.1v-9.2
		c0-2,0.6-3.7,2-5.1c1.4-1.4,3.1-2.1,5.1-2.1c2,0,3.6,0.7,5,2.1c1.4,1.4,2,3.1,2,5.1l0,8.8c0,0,0,3,2.3,3
		C152.6,34.3,152.6,31.4,152.6,31.4z"/>
	<path d="M92.6,31.4v-8.9c0-3.3-1-6.2-3.4-8.6c-2.4-2.4-5.1-3.5-8.4-3.5c-3.3,0-6.2,1.2-8.5,3.5c-2.4,2.4-3.5,5.2-3.5,8.6v9V32
		c0,0,0,0,0,0c0,0,0,0,0,0c0,0.5,0.5,2.4,2.5,2.4c2,0,2.7-1.6,2.7-2.4c0-0.1,0-0.1,0-0.2c0,0,0,0,0,0c0,0,0-0.1,0-0.1v-9.2
		c0-2,0.6-3.7,2-5.1c1.4-1.4,3.1-2.1,5.1-2.1c2,0,3.6,0.7,5,2.1c1.4,1.4,2,3.1,2,5.1l0,8.8c0,0,0,3,2.3,3
		C92.6,34.3,92.6,31.4,92.6,31.4z"/>
</g>
</svg>
