<?xml version="1.0" encoding="utf-8"?>
<!-- Generator: Adobe Illustrator 18.0.0, SVG Export Plug-In . SVG Version: 6.00 Build 0)  -->
<!DOCTYPE svg PUBLIC "-//W3C//DTD SVG 1.1//EN" "http://www.w3.org/Graphics/SVG/1.1/DTD/svg11.dtd">
<svg version="1.1" id="图层_1" xmlns="http://www.w3.org/2000/svg" xmlns:xlink="http://www.w3.org/1999/xlink" x="0px" y="0px"
	 viewBox="0 0 26 26" enable-background="new 0 0 26 26" xml:space="preserve">
<path d="M18.9,1.6H7.1c-1.1,0-2,0.9-2,2v18.8c0,1.1,0.9,2,2,2h11.8c1.1,0,2-0.9,2-2V3.6C20.9,2.5,20,1.6,18.9,1.6z M11.6,3h2.8
	c0.1,0,0.2,0.1,0.2,0.2c0,0.1-0.1,0.2-0.2,0.2h-2.8c-0.1,0-0.2-0.1-0.2-0.2C11.4,3.1,11.5,3,11.6,3z M10.8,3C10.9,3,11,3.1,11,3.2
	s-0.1,0.2-0.2,0.2c-0.1,0-0.2-0.1-0.2-0.2S10.7,3,10.8,3z M13,23.1c-0.6,0-1.1-0.5-1.1-1.1s0.5-1.1,1.1-1.1c0.6,0,1.1,0.5,1.1,1.1
	S13.6,23.1,13,23.1z M19,19.7H7V4.5h12V19.7z"/>
</svg>
