<?xml version="1.0" encoding="utf-8"?>
<!-- Generator: Adobe Illustrator 18.0.0, SVG Export Plug-In . SVG Version: 6.00 Build 0)  -->
<!DOCTYPE svg PUBLIC "-//W3C//DTD SVG 1.1//EN" "http://www.w3.org/Graphics/SVG/1.1/DTD/svg11.dtd">
<svg version="1.1" id="图层_1" xmlns="http://www.w3.org/2000/svg" xmlns:xlink="http://www.w3.org/1999/xlink" x="0px" y="0px"
	 viewBox="0 0 26 26" enable-background="new 0 0 26 26" xml:space="preserve">
<g>
	<path d="M9.7,20.7c-0.3,0-0.6-0.1-0.9-0.4c-0.2-0.2-0.4-0.6-0.4-0.9l0-7.2H4.1c-0.3,0-0.5-0.2-0.5-0.3c0-0.1-0.1-0.3,0.1-0.6
		l5.6-7.6c0.2-0.3,0.7-0.3,0.9,0l3.2,4.3c0.3,0.4,0.8,0.4,1.2,0.2c0.4-0.3,0.4-0.8,0.2-1.2l-3.2-4.3C11,2.3,10.4,2,9.7,2
		S8.3,2.3,7.9,2.9l-5.6,7.6c-0.5,0.7-0.6,1.6-0.2,2.3c0.4,0.8,1.1,1.2,2,1.2h2.7l0,5.5c0,0.8,0.3,1.5,0.9,2.1
		c0.5,0.5,1.3,0.9,2.1,0.9c0.5,0,0.8-0.4,0.8-0.8S10.1,20.7,9.7,20.7z"/>
	<path d="M23.1,15.4h-9.5c-0.6,0-1,0.4-1,1V18c0,0.6,0.4,1,1,1h9.5c0.6,0,1-0.4,1-1v-1.6C24.1,15.9,23.7,15.4,23.1,15.4z"/>
	<path d="M23.1,20.4h-9.5c-0.6,0-1,0.4-1,1V23c0,0.6,0.4,1,1,1h9.5c0.6,0,1-0.4,1-1v-1.6C24.1,20.9,23.7,20.4,23.1,20.4z"/>
	<path d="M23.1,10.4h-9.5c-0.6,0-1,0.4-1,1V13c0,0.6,0.4,1,1,1h9.5c0.6,0,1-0.4,1-1v-1.6C24.1,10.9,23.7,10.4,23.1,10.4z"/>
</g>
</svg>
