<?xml version="1.0" encoding="utf-8"?>
<!-- Generator: Adobe Illustrator 18.0.0, SVG Export Plug-In . SVG Version: 6.00 Build 0)  -->
<!DOCTYPE svg PUBLIC "-//W3C//DTD SVG 1.1//EN" "http://www.w3.org/Graphics/SVG/1.1/DTD/svg11.dtd">
<svg version="1.1" id="图层_1" xmlns="http://www.w3.org/2000/svg" xmlns:xlink="http://www.w3.org/1999/xlink" x="0px" y="0px"
	 viewBox="0 0 26 26" enable-background="new 0 0 26 26" xml:space="preserve">
<path d="M22.4,4.5h-19c-1.1,0-2,0.9-2,2v13c0,1.1,0.9,2,2,2h19c1.1,0,2-0.9,2-2v-13C24.4,5.4,23.5,4.5,22.4,4.5z M12.1,17.7H9.8H6.6
	H4.3c-0.3,0-0.5-0.3-0.4-0.6L4,16.3c0.1-0.4,0.4-0.8,0.9-0.9l2.2-0.6h0v-0.3c-0.8-0.4-1.3-1.2-1.3-2.1v-1.8c0-1.3,1-2.3,2.3-2.3h0.2
	c1.3,0,2.3,1,2.3,2.3v1.8c0,0.9-0.5,1.7-1.3,2.1v0.3h0l2.2,0.6c0.4,0.1,0.7,0.5,0.9,0.9l0.2,0.8C12.7,17.4,12.4,17.7,12.1,17.7z
	 M21.1,16.5h-6.2c-0.3,0-0.6-0.3-0.6-0.6s0.3-0.6,0.6-0.6h6.2c0.3,0,0.6,0.3,0.6,0.6S21.5,16.5,21.1,16.5z M21.1,13.6h-6.2
	c-0.3,0-0.6-0.3-0.6-0.6s0.3-0.6,0.6-0.6h6.2c0.3,0,0.6,0.3,0.6,0.6S21.5,13.6,21.1,13.6z M21.1,10.7h-6.2c-0.3,0-0.6-0.3-0.6-0.6
	s0.3-0.6,0.6-0.6h6.2c0.3,0,0.6,0.3,0.6,0.6S21.5,10.7,21.1,10.7z"/>
</svg>
