<?xml version="1.0" encoding="utf-8"?>
<!-- Generator: Adobe Illustrator 18.0.0, SVG Export Plug-In . SVG Version: 6.00 Build 0)  -->
<!DOCTYPE svg PUBLIC "-//W3C//DTD SVG 1.1//EN" "http://www.w3.org/Graphics/SVG/1.1/DTD/svg11.dtd">
<svg version="1.1" id="图层_1" xmlns="http://www.w3.org/2000/svg" xmlns:xlink="http://www.w3.org/1999/xlink" x="0px" y="0px"
	 viewBox="0 0 26 26" enable-background="new 0 0 26 26" xml:space="preserve">
<g>
	<path d="M20.9,3.1H5.1c-1.1,0-2,0.9-2,2v15.8c0,1.1,0.9,2,2,2h15.8c1.1,0,2-0.9,2-2V5.1C22.9,4,22,3.1,20.9,3.1z M9.5,4.2
		c0.4,0,0.7,0.3,0.7,0.7S9.9,5.6,9.5,5.6S8.8,5.3,8.8,4.9S9.1,4.2,9.5,4.2z M7.5,4.2c0.4,0,0.7,0.3,0.7,0.7S7.9,5.6,7.5,5.6
		S6.8,5.3,6.8,4.9S7.1,4.2,7.5,4.2z M5.5,4.2c0.4,0,0.7,0.3,0.7,0.7S5.9,5.6,5.5,5.6S4.8,5.3,4.8,4.9S5.1,4.2,5.5,4.2z M21.2,20.2
		c0,0.6-0.4,1-1,1H5.8c-0.6,0-1-0.4-1-1V6.7h16.4V20.2z"/>
	<path d="M7.4,16.9h11.3c0.5,0,0.8-0.4,0.8-0.8s-0.4-0.8-0.8-0.8H7.4c-0.5,0-0.8,0.4-0.8,0.8S6.9,16.9,7.4,16.9z"/>
	<path d="M7.4,19.8h11.3c0.5,0,0.8-0.4,0.8-0.8s-0.4-0.8-0.8-0.8H7.4c-0.5,0-0.8,0.4-0.8,0.8S6.9,19.8,7.4,19.8z"/>
	<path d="M8.4,13.9h9.3c1,0,1.8-0.8,1.8-1.8V10c0-1-0.8-1.8-1.8-1.8H8.4c-1,0-1.8,0.8-1.8,1.8v2.1C6.6,13.1,7.4,13.9,8.4,13.9z
		 M8.2,10c0-0.1,0.1-0.2,0.2-0.2h9.3c0.1,0,0.2,0.1,0.2,0.2v2.1c0,0.1-0.1,0.2-0.2,0.2H8.4c-0.1,0-0.2-0.1-0.2-0.2V10z"/>
</g>
</svg>
