<?xml version="1.0" encoding="utf-8"?>
<!-- Generator: Adobe Illustrator 18.0.0, SVG Export Plug-In . SVG Version: 6.00 Build 0)  -->
<!DOCTYPE svg PUBLIC "-//W3C//DTD SVG 1.1//EN" "http://www.w3.org/Graphics/SVG/1.1/DTD/svg11.dtd">
<svg version="1.1" id="图层_1" xmlns="http://www.w3.org/2000/svg" xmlns:xlink="http://www.w3.org/1999/xlink" x="0px" y="0px"
	 viewBox="0 0 20 20" enable-background="new 0 0 20 20" xml:space="preserve">
<g>
	<path d="M16.8,5.5l-3.4-3.4c-0.5-0.5-1.3-0.9-2.1-0.9H5.2c-1.6,0-2.9,1.3-2.9,2.9v11.5c0,1.6,1.3,2.9,2.9,2.9h9.5
		c1.6,0,2.9-1.3,2.9-2.9V7.6C17.7,6.8,17.4,6.1,16.8,5.5z M14.8,17.2H5.2c-0.8,0-1.4-0.6-1.4-1.4V4.2c0-0.8,0.6-1.4,1.4-1.4H10
		c0.5,0,0.9,0.4,0.9,0.9v2.7c0,0.9,0.7,1.7,1.7,1.7h2.7c0.5,0,0.9,0.4,0.9,0.9v6.7C16.2,16.5,15.6,17.2,14.8,17.2z"/>
	<path d="M6.3,9.9h4c0.4,0,0.7-0.3,0.7-0.7c0-0.4-0.3-0.7-0.7-0.7h-4c-0.4,0-0.7,0.3-0.7,0.7C5.6,9.6,5.9,9.9,6.3,9.9z"/>
	<path d="M13.7,11H6.3c-0.4,0-0.7,0.3-0.7,0.7c0,0.4,0.3,0.7,0.7,0.7h7.3c0.4,0,0.7-0.3,0.7-0.7C14.4,11.4,14.1,11,13.7,11z"/>
	<path d="M13.7,13.7H6.3c-0.4,0-0.7,0.3-0.7,0.7s0.3,0.7,0.7,0.7h7.3c0.4,0,0.7-0.3,0.7-0.7S14.1,13.7,13.7,13.7z"/>
</g>
</svg>
