<?xml version="1.0" encoding="utf-8"?>
<!-- Generator: Adobe Illustrator 18.0.0, SVG Export Plug-In . SVG Version: 6.00 Build 0)  -->
<!DOCTYPE svg PUBLIC "-//W3C//DTD SVG 1.1//EN" "http://www.w3.org/Graphics/SVG/1.1/DTD/svg11.dtd">
<svg version="1.1" id="图层_1" xmlns="http://www.w3.org/2000/svg" xmlns:xlink="http://www.w3.org/1999/xlink" x="0px" y="0px"
	 viewBox="0 0 24 24" enable-background="new 0 0 24 24" xml:space="preserve">
<path d="M20.5,1.1h-17C2,1.1,1.2,2.8,2.1,4L10,14.2v7.7c0,0.7,0.8,1.2,1.4,0.9l2-1c0.3-0.2,0.6-0.5,0.6-0.9v-6.7L21.9,4
	C22.8,2.8,22,1.1,20.5,1.1z M10.9,10.6c-0.1,0.1-0.3,0.2-0.5,0.2c-0.2,0-0.4-0.1-0.6-0.3L5,4.4C4.7,4.1,4.8,3.6,5.1,3.3
	c0.3-0.3,0.8-0.2,1.1,0.1L11,9.5C11.2,9.8,11.2,10.3,10.9,10.6z"/>
</svg>
