<?xml version="1.0" encoding="utf-8"?>
<!-- Generator: Adobe Illustrator 18.0.0, SVG Export Plug-In . SVG Version: 6.00 Build 0)  -->
<!DOCTYPE svg PUBLIC "-//W3C//DTD SVG 1.1//EN" "http://www.w3.org/Graphics/SVG/1.1/DTD/svg11.dtd">
<svg version="1.1" id="图层_1" xmlns="http://www.w3.org/2000/svg" xmlns:xlink="http://www.w3.org/1999/xlink" x="0px" y="0px"
	 viewBox="0 0 16 16" enable-background="new 0 0 16 16" xml:space="preserve">
<path d="M8,0C3.6,0,0,3.6,0,8c0,4.4,3.6,8,8,8c4.4,0,8-3.6,8-8C16,3.6,12.4,0,8,0z M12.4,8.7H8.7v3.7c0,0.4-0.3,0.7-0.7,0.7
	s-0.7-0.3-0.7-0.7V8.7H3.6C3.2,8.7,2.9,8.4,2.9,8s0.3-0.7,0.7-0.7h3.7V3.6c0-0.4,0.3-0.7,0.7-0.7s0.7,0.3,0.7,0.7v3.7h3.7
	c0.4,0,0.7,0.3,0.7,0.7S12.8,8.7,12.4,8.7z"/>
</svg>
