<?xml version="1.0" encoding="utf-8"?>
<!-- Generator: Adobe Illustrator 18.0.0, SVG Export Plug-In . SVG Version: 6.00 Build 0)  -->
<!DOCTYPE svg PUBLIC "-//W3C//DTD SVG 1.1//EN" "http://www.w3.org/Graphics/SVG/1.1/DTD/svg11.dtd">
<svg version="1.1" id="图层_1" xmlns="http://www.w3.org/2000/svg" xmlns:xlink="http://www.w3.org/1999/xlink" x="0px" y="0px"
	 viewBox="0 0 16 16" enable-background="new 0 0 16 16" xml:space="preserve">
<path d="M8.7,7.3V2.6c0-0.4-0.3-0.7-0.7-0.7c-0.4,0-0.7,0.3-0.7,0.7v4.7H2.6C2.2,7.3,1.9,7.6,1.9,8c0,0.4,0.3,0.7,0.7,0.7h4.7v4.7
	c0,0.4,0.3,0.7,0.7,0.7c0.2,0,0.4-0.1,0.5-0.2c0.1-0.1,0.2-0.3,0.2-0.5V8.7h4.7c0.2,0,0.4-0.1,0.5-0.2C14,8.4,14.1,8.2,14.1,8
	c0-0.4-0.3-0.7-0.7-0.7H8.7z"/>
</svg>
