<?xml version="1.0" encoding="utf-8"?>
<!-- Generator: Adobe Illustrator 18.0.0, SVG Export Plug-In . SVG Version: 6.00 Build 0)  -->
<!DOCTYPE svg PUBLIC "-//W3C//DTD SVG 1.1//EN" "http://www.w3.org/Graphics/SVG/1.1/DTD/svg11.dtd">
<svg version="1.1" id="图层_1" xmlns="http://www.w3.org/2000/svg" xmlns:xlink="http://www.w3.org/1999/xlink" x="0px" y="0px"
	 viewBox="0 0 26 26" enable-background="new 0 0 26 26" xml:space="preserve">
<g>
	<path d="M22.4,9.8l-3.7-3.7c-0.6-0.6-1.4-0.9-2.3-0.9H9.6c-1.8,0-3.2,1.4-3.2,3.2v12.7c0,1.8,1.4,3.2,3.2,3.2h10.5
		c1.8,0,3.2-1.4,3.2-3.2v-9C23.3,11.2,23,10.4,22.4,9.8z M20.1,22.7H9.6C8.7,22.7,8,22,8,21.1V8.4c0-0.9,0.7-1.6,1.6-1.6h5.3
		c0.6,0,1,0.4,1,1v3c0,1,0.8,1.8,1.8,1.8h3c0.6,0,1,0.4,1,1v7.5C21.7,22,21,22.7,20.1,22.7z"/>
	<path d="M10.8,14.6h4.4c0.5,0,0.8-0.4,0.8-0.8S15.7,13,15.2,13h-4.4c-0.5,0-0.8,0.4-0.8,0.8S10.3,14.6,10.8,14.6z"
		/>
	<path d="M18.9,15.9h-8.1c-0.5,0-0.8,0.4-0.8,0.8s0.4,0.8,0.8,0.8h8.1c0.5,0,0.8-0.4,0.8-0.8S19.3,15.9,18.9,15.9z"
		/>
	<path d="M18.9,18.8h-8.1c-0.5,0-0.8,0.4-0.8,0.8s0.4,0.8,0.8,0.8h8.1c0.5,0,0.8-0.4,0.8-0.8S19.3,18.8,18.9,18.8z"
		/>
	<path d="M13.6,2.5c0-0.5-0.4-0.8-0.8-0.8H5.9c-1.8,0-3.2,1.4-3.2,3.2v12.9c0,0.5,0.4,0.8,0.8,0.8s0.8-0.4,0.8-0.8
		V4.9C4.3,4,5,3.3,5.9,3.3h6.9C13.3,3.3,13.6,3,13.6,2.5z"/>
</g>
</svg>
