<?xml version="1.0" encoding="utf-8"?>
<!-- Generator: Adobe Illustrator 18.0.0, SVG Export Plug-In . SVG Version: 6.00 Build 0)  -->
<!DOCTYPE svg PUBLIC "-//W3C//DTD SVG 1.1//EN" "http://www.w3.org/Graphics/SVG/1.1/DTD/svg11.dtd">
<svg version="1.1" id="图层_1" xmlns="http://www.w3.org/2000/svg" xmlns:xlink="http://www.w3.org/1999/xlink" x="0px" y="0px"
	 viewBox="0 0 20 20" enable-background="new 0 0 20 20" xml:space="preserve">
<path d="M15.4,2.4h-1.7V2.2c0-0.6-0.5-1.2-1.2-1.2H7.4C6.7,1,6.2,1.6,6.2,2.2v0.2H4.6C3,2.4,1.8,3.7,1.8,5.2v10.9
	C1.8,17.7,3,19,4.6,19h10.9c1.5,0,2.8-1.3,2.8-2.8V5.2C18.2,3.7,17,2.4,15.4,2.4z M16.8,16.1c0,0.8-0.6,1.4-1.4,1.4H4.6
	c-0.8,0-1.4-0.6-1.4-1.4V5.2c0-0.8,0.6-1.4,1.4-1.4h1.7v7.7c0,0.7,0.8,1.1,1.3,0.6L9.1,10c0.4-0.5,1.2-0.5,1.6,0l1.7,2.2
	c0.5,0.5,1.3,0.1,1.3-0.6V3.8h1.7c0.8,0,1.4,0.6,1.4,1.4V16.1z"/>
</svg>
