<?xml version="1.0" encoding="utf-8"?>
<!-- Generator: Adobe Illustrator 18.0.0, SVG Export Plug-In . SVG Version: 6.00 Build 0)  -->
<!DOCTYPE svg PUBLIC "-//W3C//DTD SVG 1.1//EN" "http://www.w3.org/Graphics/SVG/1.1/DTD/svg11.dtd">
<svg version="1.1" id="图层_1" xmlns="http://www.w3.org/2000/svg" xmlns:xlink="http://www.w3.org/1999/xlink" x="0px" y="0px"
	 viewBox="0 0 16 16" enable-background="new 0 0 16 16" xml:space="preserve">
<g>
	<path d="M6.5,2.1c-0.4,0-0.7,0.3-0.7,0.7s0.3,0.7,0.7,0.7c1.7,0,3,1.3,3,3c0,0.4,0.3,0.7,0.7,0.7s0.7-0.3,0.7-0.7
		C10.9,4,8.9,2.1,6.5,2.1z"/>
	<path d="M15.7,14.7l-4.2-4.2c0.9-1.1,1.4-2.5,1.4-4c0-3.5-2.9-6.4-6.4-6.4S0.1,2.9,0.1,6.5c0,3.5,2.9,6.4,6.4,6.4
		c1.5,0,2.9-0.5,4-1.4c0,0,0,0,0,0l4.2,4.2c0.1,0.1,0.3,0.2,0.5,0.2s0.4-0.1,0.5-0.2C16,15.5,16,15,15.7,14.7z M6.5,11.5
		c-2.8,0-5-2.2-5-5c0-2.8,2.2-5,5-5s5,2.2,5,5C11.5,9.2,9.2,11.5,6.5,11.5z"/>
</g>
</svg>
