<?xml version="1.0" encoding="utf-8"?>
<!-- Generator: Adobe Illustrator 18.0.0, SVG Export Plug-In . SVG Version: 6.00 Build 0)  -->
<!DOCTYPE svg PUBLIC "-//W3C//DTD SVG 1.1//EN" "http://www.w3.org/Graphics/SVG/1.1/DTD/svg11.dtd">
<svg version="1.1" id="图层_1" xmlns="http://www.w3.org/2000/svg" xmlns:xlink="http://www.w3.org/1999/xlink" x="0px" y="0px"
	 viewBox="0 0 26 26" enable-background="new 0 0 26 26" xml:space="preserve">
<g>
	<path d="M15.9,12.8l-5.8-8.6l-5.8,8.6l0,0c-0.9,1.2-1.4,2.7-1.4,4.2c0,4,3.2,7.2,7.2,7.2c4,0,7.2-3.2,7.2-7.2
		C17.3,15.4,16.8,13.9,15.9,12.8L15.9,12.8z M10.1,22.4c-0.5,0-0.8-0.4-0.8-0.8s0.4-0.8,0.8-0.8c2,0,3.7-1.7,3.7-3.7
		c0-0.5,0.4-0.8,0.8-0.8s0.8,0.4,0.8,0.8C15.4,19.9,13,22.4,10.1,22.4z"/>
	<path d="M22.5,5.6L22.5,5.6L20,1.8l-2.6,3.8l0,0c-0.4,0.5-0.6,1.2-0.6,1.8c0,1.7,1.4,3.2,3.2,3.2c1.7,0,3.2-1.4,3.2-3.2
		C23.1,6.7,22.9,6.1,22.5,5.6z"/>
</g>
</svg>
