<?xml version="1.0" encoding="utf-8"?>
<!-- Generator: Adobe Illustrator 18.0.0, SVG Export Plug-In . SVG Version: 6.00 Build 0)  -->
<!DOCTYPE svg PUBLIC "-//W3C//DTD SVG 1.1//EN" "http://www.w3.org/Graphics/SVG/1.1/DTD/svg11.dtd">
<svg version="1.1" id="图层_1" xmlns="http://www.w3.org/2000/svg" xmlns:xlink="http://www.w3.org/1999/xlink" x="0px" y="0px"
	 viewBox="0 0 26 26" enable-background="new 0 0 26 26" xml:space="preserve">
<g>
	<path d="M20,16.9l-3.9-1c-0.2,0-0.3-0.1-0.5-0.2c1.3-0.9,2.2-2.3,2.2-4v-3c0-2.6-2.2-4.8-4.8-4.8h-0.1c-2.6,0-4.7,2.1-4.7,4.7v3.2
		c0,1.6,0.8,3.1,2.1,3.9c-0.1,0.1-0.3,0.2-0.4,0.2l-3.9,1c-1.2,0.3-2.1,1.4-2.1,2.7v0.8c0,1,0.8,1.8,1.8,1.8h14.6
		c1,0,1.8-0.8,1.8-1.8v-0.8C22.1,18.3,21.2,17.2,20,16.9z M9.8,8.5c0-1.7,1.4-3.1,3.1-3.1H13c1.8,0,3.2,1.4,3.2,3.2v3
		c0,1.8-1.4,3.2-3.2,3.2h-0.1c-1.7,0-3.1-1.4-3.1-3.1V8.5z M20.5,20.4c0,0.1-0.1,0.2-0.2,0.2H5.7c-0.1,0-0.2-0.1-0.2-0.2v-0.8
		c0-0.5,0.4-1,0.9-1.2l3.9-1c0.5-0.1,0.9-0.4,1.3-0.7l0.4-0.4c0.3,0.1,0.6,0.1,1,0.1H13c0.4,0,0.7,0,1-0.1l0.4,0.4
		c0.4,0.4,0.8,0.6,1.3,0.7l3.9,1c0.5,0.1,0.9,0.6,0.9,1.2V20.4z"/>
	<path d="M7,6.1c-0.2,0-0.4,0.1-0.6,0.2c-1.5,0.5-2.5,2-2.5,3.6v2.3c0,1,0.4,1.9,1,2.6l-2.3,0.6c-1,0.3-1.7,1.2-1.7,2.2v0.6
		c0,0.9,0.7,1.6,1.6,1.6c0.4,0,0.8-0.3,0.8-0.8s-0.3-0.8-0.8-0.8v-0.6c0-0.3,0.2-0.6,0.5-0.7l3-0.8c0.4-0.1,0.7-0.3,1-0.6
		c0.2-0.2,0.2-0.4,0.2-0.6c0-0.3-0.2-0.6-0.5-0.7c-0.8-0.4-1.3-1.1-1.3-2V9.8c0-0.9,0.6-1.7,1.4-2.1c0.1,0,0.2-0.1,0.4-0.1
		C7.7,7.6,8,7.2,7.9,6.7C7.9,6.3,7.4,6,7,6.1z"/>
	<path d="M23.4,15.3l-2.3-0.6c0.6-0.7,1-1.6,1-2.6V9.8c0-1.6-1-3-2.5-3.6c-0.2-0.1-0.4-0.1-0.6-0.2C18.5,6,18.1,6.3,18,6.7
		c-0.1,0.4,0.2,0.9,0.7,0.9c0.1,0,0.2,0.1,0.4,0.1c0.9,0.3,1.4,1.1,1.4,2.1v2.3c0,0.9-0.5,1.6-1.3,2c-0.3,0.1-0.4,0.4-0.5,0.7
		c0,0.2,0,0.5,0.2,0.6c0.3,0.3,0.6,0.5,1,0.6l3,0.8c0.3,0.1,0.5,0.4,0.5,0.7l0,0.6c-0.4,0-0.8,0.4-0.8,0.8s0.4,0.8,0.8,0.8
		c0.9,0,1.6-0.7,1.6-1.6v-0.6C25.1,16.5,24.4,15.6,23.4,15.3z"/>
	<path fill="none" stroke="#000000" stroke-width="1.6" stroke-miterlimit="10" d="M8.9,14.8"/>
</g>
</svg>
