<?xml version="1.0" encoding="utf-8"?>
<!-- Generator: Adobe Illustrator 18.0.0, SVG Export Plug-In . SVG Version: 6.00 Build 0)  -->
<!DOCTYPE svg PUBLIC "-//W3C//DTD SVG 1.1//EN" "http://www.w3.org/Graphics/SVG/1.1/DTD/svg11.dtd">
<svg version="1.1" id="图层_1" xmlns="http://www.w3.org/2000/svg" xmlns:xlink="http://www.w3.org/1999/xlink" x="0px" y="0px"
	 viewBox="0 0 24 24" enable-background="new 0 0 24 24" xml:space="preserve">
<g>
	<path d="M12,2.1c-5.5,0-9.9,4.4-9.9,9.9s4.4,9.9,9.9,9.9s9.9-4.4,9.9-9.9S17.5,2.1,12,2.1z M12,21.5c-5.2,0-9.5-4.2-9.5-9.5
		S6.8,2.5,12,2.5s9.5,4.2,9.5,9.5S17.2,21.5,12,21.5z"/>
	<g>
		<path d="M7.8,8.7v0.4c0,0-1.4-0.1-1,1s2.8,7.2,2.8,7.2l1.9-4.6l-1-2.5c0,0-0.4-1-1.6-1l0-0.6h6V9c0,0-1.3-0.1-0.9,1
			c0.4,1.1,2.6,6.8,2.6,6.8s1.7-3.3,1.4-6.3c-0.2-1.9-0.5-1.7-0.6-2.7c-0.1-1,0.4-1.4,1.1-1.6c-1.6-1.8-3.9-3-6.5-3
			c-3.6,0-6.7,2.2-8,5.3H7.8z"/>
		<path d="M3.5,10.2c-0.1,0.6-0.2,1.2-0.2,1.8c0,3,1.5,5.7,3.9,7.2L3.5,10.2z"/>
		<path d="M20.4,9.8l-3.7,9.5c2.4-1.5,4-4.2,4-7.3C20.7,11.2,20.6,10.5,20.4,9.8z"/>
		<path d="M12.1,13.7l-2.8,6.6c0.8,0.3,1.8,0.4,2.7,0.4c0.9,0,1.8-0.1,2.7-0.4L12.1,13.7z"/>
	</g>
</g>
</svg>
