<?xml version="1.0" encoding="utf-8"?>
<!-- Generator: Adobe Illustrator 18.0.0, SVG Export Plug-In . SVG Version: 6.00 Build 0)  -->
<!DOCTYPE svg PUBLIC "-//W3C//DTD SVG 1.1//EN" "http://www.w3.org/Graphics/SVG/1.1/DTD/svg11.dtd">
<svg version="1.1" id="图层_1" xmlns="http://www.w3.org/2000/svg" xmlns:xlink="http://www.w3.org/1999/xlink" x="0px" y="0px"
	 viewBox="0 0 16 16" enable-background="new 0 0 16 16" xml:space="preserve">
<path d="M15.7,2.4c-0.2-0.5-0.5-0.9-0.9-1.3c-0.4-0.4-0.8-0.7-1.3-0.9S12.5,0,12,0h-2H8H6H4C3.4,0,2.9,0.1,2.4,0.3
	C2,0.5,1.5,0.8,1.2,1.2C0.8,1.5,0.5,2,0.3,2.4C0.1,2.9,0,3.5,0,4v2v2v2v2c0,0.5,0.1,1.1,0.3,1.6c0.2,0.5,0.5,0.9,0.9,1.3
	s0.8,0.7,1.3,0.9C2.9,15.9,3.4,16,4,16h2h2h2h2c0.5,0,1.1-0.1,1.6-0.3s0.9-0.5,1.3-0.9c0.4-0.4,0.7-0.8,0.9-1.3
	c0.2-0.5,0.3-1,0.3-1.6v-2V8V6V4C16,3.5,15.9,2.9,15.7,2.4z"/>
</svg>