<?xml version="1.0" encoding="utf-8"?>
<!-- Generator: Adobe Illustrator 18.0.0, SVG Export Plug-In . SVG Version: 6.00 Build 0)  -->
<!DOCTYPE svg PUBLIC "-//W3C//DTD SVG 1.1//EN" "http://www.w3.org/Graphics/SVG/1.1/DTD/svg11.dtd">
<svg version="1.1" id="图层_1" xmlns="http://www.w3.org/2000/svg" xmlns:xlink="http://www.w3.org/1999/xlink" x="0px" y="0px"
	 viewBox="0 0 20 20" enable-background="new 0 0 20 20" xml:space="preserve">
<path d="M17,14l-3.9-1c-0.2-0.1-0.4-0.2-0.6-0.3l0,0c1.3-0.8,2.2-2.3,2.2-4v-3c0-2.6-2.1-4.7-4.8-4.7C7.4,0.9,5.3,3,5.3,5.5v3.2
	c0,1.7,0.9,3.1,2.2,3.9l0,0c-0.2,0.2-0.4,0.3-0.6,0.3L3,14c-1.2,0.3-2,1.4-2,2.6v0.8c0,0.9,0.8,1.7,1.7,1.7h14.6
	c0.9,0,1.7-0.8,1.7-1.7v-0.8C19,15.4,18.2,14.3,17,14z M6.7,5.5c0-1.8,1.4-3.2,3.3-3.2c1.8,0,3.3,1.5,3.3,3.3v3
	c0,1.8-1.5,3.3-3.3,3.3H9.9c-1.8,0-3.2-1.4-3.2-3.2V5.5z M17.6,17.4c0,0.2-0.1,0.3-0.3,0.3H2.7c-0.2,0-0.3-0.1-0.3-0.3v-0.8
	c0-0.6,0.4-1.1,1-1.3l3.9-1c0.5-0.1,0.9-0.4,1.2-0.7l0.4-0.4c0.3,0.1,0.7,0.1,1,0.1H10c0.4,0,0.7-0.1,1.1-0.1l0.4,0.4
	c0.3,0.3,0.8,0.6,1.2,0.7l3.9,1c0.6,0.2,1,0.7,1,1.3V17.4z"/>
</svg>
