<?xml version="1.0" encoding="utf-8"?>
<!-- Generator: Adobe Illustrator 18.0.0, SVG Export Plug-In . SVG Version: 6.00 Build 0)  -->
<!DOCTYPE svg PUBLIC "-//W3C//DTD SVG 1.1//EN" "http://www.w3.org/Graphics/SVG/1.1/DTD/svg11.dtd">
<svg version="1.1" id="图层_1" xmlns="http://www.w3.org/2000/svg" xmlns:xlink="http://www.w3.org/1999/xlink" x="0px" y="0px"
	 viewBox="0 0 20 20" enable-background="new 0 0 20 20" xml:space="preserve">
<g>
	<path d="M10,0.6c-5,0-9.1,3.5-9.1,7.8c0,3.4,2.5,6.4,6.3,7.4l-0.8,2.2c-0.1,0.3-0.1,0.7,0.1,1c0.2,0.3,0.6,0.5,0.9,0.5
		c0.3,0,0.5-0.1,0.7-0.3l0.7-0.6c1.5-1.2,3.2-2.3,5.5-3.4c2.9-1.4,4.8-4,4.8-6.9C19.1,4.1,15,0.6,10,0.6z M13.8,14
		c-2.3,1.1-4.2,2.2-5.7,3.5l0.4-1.2c0.1-0.4,0.1-0.8-0.1-1.1c-0.2-0.3-0.5-0.6-0.9-0.7c-3.1-0.9-5.3-3.3-5.3-6.1C2.3,4.8,5.8,2,10,2
		c4.2,0,7.7,2.9,7.7,6.4C17.7,10.7,16.2,12.8,13.8,14z"/>
	<circle cx="10.1" cy="8.5" r="1"/>
	<circle cx="14.2" cy="8.5" r="1"/>
	<circle cx="5.9" cy="8.5" r="1"/>
</g>
</svg>
