<?xml version="1.0" encoding="utf-8"?>
<!-- Generator: Adobe Illustrator 18.0.0, SVG Export Plug-In . SVG Version: 6.00 Build 0)  -->
<!DOCTYPE svg PUBLIC "-//W3C//DTD SVG 1.1//EN" "http://www.w3.org/Graphics/SVG/1.1/DTD/svg11.dtd">
<svg version="1.1" id="图层_1" xmlns="http://www.w3.org/2000/svg" xmlns:xlink="http://www.w3.org/1999/xlink" x="0px" y="0px"
	 viewBox="0 0 20 20" enable-background="new 0 0 20 20" xml:space="preserve">
<g>
	<path d="M17.6,4.3c-0.4-0.4-1-0.7-1.6-0.7h-0.8V2.5c0-0.3-0.1-0.6-0.3-0.8c-0.4-0.4-1.2-0.4-1.6,0C13.1,1.9,13,2.2,13,2.5v1.1H7
		V2.4c0-0.3-0.1-0.6-0.3-0.8c-0.4-0.4-1.2-0.4-1.6,0C4.9,1.8,4.7,2.1,4.7,2.4v1.2H4c-0.6,0-1.2,0.2-1.6,0.7C2,4.7,1.7,5.3,1.7,5.9
		v10.6c0,0.6,0.2,1.2,0.7,1.6c0.4,0.4,1,0.7,1.6,0.7h12c0.6,0,1.2-0.2,1.6-0.7c0.4-0.4,0.7-1,0.7-1.6V5.9C18.3,5.3,18,4.7,17.6,4.3z
		 M16.8,8.9v7.6c0,0.2-0.1,0.4-0.2,0.5c-0.1,0.1-0.3,0.2-0.5,0.2H4c-0.2,0-0.4-0.1-0.5-0.2c-0.1-0.1-0.2-0.3-0.2-0.5V8.9H16.8z
		 M16.8,5.9v1.4H3.2V5.9c0-0.2,0.1-0.4,0.2-0.5C3.6,5.3,3.8,5.2,4,5.2h12c0.2,0,0.4,0.1,0.5,0.2S16.8,5.7,16.8,5.9z"/>
	<rect x="4.6" y="12.5" width="3.4" height="3.4"/>
</g>
</svg>
