<?xml version="1.0" encoding="utf-8"?>
<!-- Generator: Adobe Illustrator 18.0.0, SVG Export Plug-In . SVG Version: 6.00 Build 0)  -->
<!DOCTYPE svg PUBLIC "-//W3C//DTD SVG 1.1//EN" "http://www.w3.org/Graphics/SVG/1.1/DTD/svg11.dtd">
<svg version="1.1" id="图层_1" xmlns="http://www.w3.org/2000/svg" xmlns:xlink="http://www.w3.org/1999/xlink" x="0px" y="0px"
	 viewBox="0 0 20 20" enable-background="new 0 0 20 20" xml:space="preserve">
<g>
	<path d="M16.4,3.8c-0.1,0-0.1,0-0.1,0c-0.1-0.1-0.2-0.3-0.4-0.4c-1.3-1.2-2.9-1.9-4.7-2.1c-0.4,0-0.7,0-1.1,0
		c-0.4,0-0.8,0.1-1.2,0.1C8,1.6,7.2,1.9,6.3,2.3C4.3,3.4,2.8,5,1.9,7C1.3,8.2,1,9.4,1,10.7c0,0.4,0,0.9,0.1,1.3
		c0.1,0.5,0.2,1,0.3,1.5c0.5,1.6,1.5,2.9,2.9,3.9c1.2,0.8,2.6,1.3,4.1,1.3c0.5,0,1,0,1.6-0.1c0.6-0.1,1.1-0.2,1.6-0.4
		c1.4-0.5,2.7-1.3,3.7-2.3c0.8-0.8,1.5-1.7,1.9-2.7c0.6-1.2,0.9-2.5,0.9-3.8c0-0.5,0-1.1-0.1-1.6C18,7,17.8,6.3,17.4,5.6
		c0-0.1,0-0.1,0-0.1C18,4.6,18.5,3.8,19,3c0,0,0,0,0-0.1c0,0-0.1,0-0.1,0C18.1,3.2,17.2,3.5,16.4,3.8z M17,4.6c-1,1.1-2,2.1-3,3.2
		c-0.8,0.8-1.6,1.6-2.4,2.5c-0.8,0.8-1.6,1.6-2.4,2.5c0,0-0.1,0.1-0.1,0.1c0,0,0,0,0,0c0.3,0.1,0.6,0.2,1,0.2c0.2,0,0.4,0,0.6,0
		c0.6,0,1.1-0.1,1.7-0.3c1.2-0.5,2.2-1.3,2.8-2.5c0.2-0.4,0.4-0.9,0.4-1.4c0.1-0.5,0-1-0.1-1.5c0,0,0-0.1,0-0.1
		c0.3-0.5,0.7-0.9,1-1.4c0,0,0,0,0,0c0,0,0,0,0,0C16.7,6.5,16.9,7,17,7.6C17,8,17.1,8.4,17,8.9c0,0.8-0.2,1.5-0.5,2.3
		c-0.7,1.6-1.8,2.8-3.4,3.7c-0.7,0.4-1.5,0.7-2.3,0.8c-0.3,0.1-0.6,0.1-0.9,0.1c-0.3,0-0.5,0-0.8,0c-1.4-0.1-2.7-0.5-3.8-1.4
		c-1-0.8-1.6-1.8-1.9-3.1c-0.1-0.6-0.2-1.2-0.2-1.8c0.1-1.1,0.4-2.1,0.9-3.1C5,5.1,6.1,4.1,7.5,3.3C8.1,3,8.8,2.8,9.6,2.6
		c0.3-0.1,0.6-0.1,1-0.1c0.3,0,0.5,0,0.8,0c1.5,0.1,2.9,0.7,4,1.7c0.2,0.2,0.4,0.4,0.6,0.7c0,0,0,0,0,0c0,0,0,0,0,0c0,0,0,0,0.1,0
		c0.5-0.3,1-0.6,1.5-0.9c0,0,0.1,0,0.1,0c0,0,0,0,0,0C17.4,4.2,17.2,4.4,17,4.6z"/>
	<rect x="19" y="2.9" width="0" height="0"/>
	<path d="M19,2.9C19,2.9,19,2.9,19,2.9C19,2.9,19,2.9,19,2.9C19,2.9,19,2.9,19,2.9z"/>
	<path d="M14.5,5.7c-0.2-0.2-0.4-0.4-0.6-0.5c-0.7-0.5-1.5-0.7-2.3-0.8c-0.4,0-0.9,0-1.3,0.1c-1.1,0.3-2,0.8-2.7,1.7
		C7.1,7,6.7,7.9,6.7,8.9c0,0.5,0,1,0.1,1.4c0,0.1,0,0.1,0.1,0.2C9.4,8.9,12,7.3,14.5,5.7C14.6,5.8,14.6,5.8,14.5,5.7
		C14.6,5.7,14.6,5.7,14.5,5.7z"/>
</g>
</svg>
