<?xml version="1.0" encoding="utf-8"?>
<!-- Generator: Adobe Illustrator 18.0.0, SVG Export Plug-In . SVG Version: 6.00 Build 0)  -->
<!DOCTYPE svg PUBLIC "-//W3C//DTD SVG 1.1//EN" "http://www.w3.org/Graphics/SVG/1.1/DTD/svg11.dtd">
<svg version="1.1" id="图层_1" xmlns="http://www.w3.org/2000/svg" xmlns:xlink="http://www.w3.org/1999/xlink" x="0px" y="0px"
	 viewBox="0 0 20 20" enable-background="new 0 0 20 20" xml:space="preserve">
<path d="M10.1,6.6V5c0-0.7-0.8-1.1-1.3-0.6L5,7.6C4.6,7.9,4.6,8.5,5,8.8l3.8,3.3c0.5,0.4,1.3,0.1,1.3-0.6V9.8c2.2,0,3.9,1.2,3.9,2.7
	c0,1.5-1.8,2.7-4,2.7c-0.3,0-0.5,0.2-0.5,0.5s0.2,0.5,0.5,0.5c3.3,0,6-2.2,6-4.9C16,8.8,13.4,6.6,10.1,6.6z"/>
</svg>
