<?xml version="1.0" encoding="utf-8"?>
<!-- Generator: Adobe Illustrator 18.0.0, SVG Export Plug-In . SVG Version: 6.00 Build 0)  -->
<!DOCTYPE svg PUBLIC "-//W3C//DTD SVG 1.1//EN" "http://www.w3.org/Graphics/SVG/1.1/DTD/svg11.dtd">
<svg version="1.1" id="图层_1" xmlns="http://www.w3.org/2000/svg" xmlns:xlink="http://www.w3.org/1999/xlink" x="0px" y="0px"
	 viewBox="0 0 20 20" enable-background="new 0 0 20 20" xml:space="preserve">
<path d="M15.7,5.1h-3.3V4.5c0-1.5-1.2-2.6-2.6-2.6H4.3C2.9,1.9,1.7,3,1.7,4.5v7.8c0,1.5,1.2,2.6,2.6,2.6h3.3v0.5
	c0,1.5,1.2,2.6,2.6,2.6h5.4c1.5,0,2.6-1.2,2.6-2.6V7.7C18.3,6.2,17.1,5.1,15.7,5.1z M4.3,13.7C3.6,13.7,3,13,3,12.3V4.5
	c0-0.7,0.6-1.4,1.4-1.4h5.4c0.7,0,1.4,0.6,1.4,1.4v0.6h-0.8c-1.5,0-2.6,1.2-2.6,2.6v6H4.3z M11.1,6.4v6c0,0.7-0.6,1.4-1.4,1.4H8.9
	v-6c0-0.7,0.6-1.4,1.4-1.4H11.1z M17,15.5c0,0.7-0.6,1.4-1.4,1.4h-5.4c-0.7,0-1.4-0.6-1.4-1.4V15h0.8c1.5,0,2.6-1.2,2.6-2.6v-6h3.3
	C16.4,6.4,17,7,17,7.7V15.5z"/>
</svg>
