<?xml version="1.0" encoding="utf-8"?>
<!-- Generator: Adobe Illustrator 18.0.0, SVG Export Plug-In . SVG Version: 6.00 Build 0)  -->
<!DOCTYPE svg PUBLIC "-//W3C//DTD SVG 1.1//EN" "http://www.w3.org/Graphics/SVG/1.1/DTD/svg11.dtd">
<svg version="1.1" id="图层_1" xmlns="http://www.w3.org/2000/svg" xmlns:xlink="http://www.w3.org/1999/xlink" x="0px" y="0px"
	 viewBox="0 0 26 26" enable-background="new 0 0 26 26" xml:space="preserve">
<g>
	<path d="M13,9.6c-3,0-5.5,2.5-5.5,5.5c0,3,2.5,5.5,5.5,5.5c3,0,5.5-2.5,5.5-5.5C18.5,12.1,16,9.6,13,9.6z M16.1,14.2L13.3,17
		c-0.3,0.3-0.7,0.5-1.1,0.5s-0.8-0.2-1.1-0.5l-1.2-1.2c-0.3-0.3-0.3-0.8,0-1.2s0.8-0.3,1.2,0l1.2,1.2l2.7-2.8c0.3-0.3,0.8-0.3,1.2,0
		S16.4,13.9,16.1,14.2z"/>
	<path d="M19.7,4.7h-0.9c-0.3-0.7-1-1.2-1.8-1.2h-1.5c-0.2-1.1-1.2-2-2.4-2s-2.2,0.8-2.4,2H9c-0.8,0-1.5,0.5-1.8,1.2H6.3
		C4.7,4.7,3.5,6,3.5,7.6v14c0,1.6,1.3,2.8,2.8,2.8h13.4c1.6,0,2.8-1.3,2.8-2.8v-14C22.5,6,21.3,4.7,19.7,4.7z M13,3.1
		c0.6,0,1,0.5,1,1s-0.5,1-1,1s-1-0.5-1-1S12.4,3.1,13,3.1z M20.9,21.6c0,0.6-0.5,1.2-1.2,1.2H6.3c-0.6,0-1.2-0.5-1.2-1.2v-14
		c0-0.6,0.5-1.2,1.2-1.2h0.9c0.3,0.7,1,1.2,1.8,1.2h8c0.8,0,1.5-0.5,1.8-1.2h0.9c0.6,0,1.2,0.5,1.2,1.2V21.6z"/>
</g>
</svg>
