<?xml version="1.0" encoding="utf-8"?>
<!-- Generator: Adobe Illustrator 18.0.0, SVG Export Plug-In . SVG Version: 6.00 Build 0)  -->
<!DOCTYPE svg PUBLIC "-//W3C//DTD SVG 1.1//EN" "http://www.w3.org/Graphics/SVG/1.1/DTD/svg11.dtd">
<svg version="1.1" id="图层_1" xmlns="http://www.w3.org/2000/svg" xmlns:xlink="http://www.w3.org/1999/xlink" x="0px" y="0px"
	 viewBox="0 0 24 24" enable-background="new 0 0 24 24" xml:space="preserve">
<path d="M12,0C5.4,0,0,5.4,0,12c0,6.6,5.4,12,12,12s12-5.4,12-12S18.6,0,12,0z M15.7,13.5L11,18.3c-0.1,0.1-0.3,0.2-0.5,0.2
	s-0.4-0.1-0.5-0.2c-0.3-0.3-0.3-0.8,0-1.1l4.7-4.7c0.3-0.3,0.3-0.7,0-1L9.9,6.8C9.6,6.5,9.6,6,9.9,5.7c0.3-0.3,0.8-0.3,1.1,0
	l4.7,4.7C16.5,11.3,16.5,12.7,15.7,13.5z"/>
</svg>
