<?xml version="1.0" encoding="utf-8"?>
<!-- Generator: Adobe Illustrator 18.0.0, SVG Export Plug-In . SVG Version: 6.00 Build 0)  -->
<!DOCTYPE svg PUBLIC "-//W3C//DTD SVG 1.1//EN" "http://www.w3.org/Graphics/SVG/1.1/DTD/svg11.dtd">
<svg version="1.1" id="图层_1" xmlns="http://www.w3.org/2000/svg" xmlns:xlink="http://www.w3.org/1999/xlink" x="0px" y="0px"
	 viewBox="0 0 26 26" enable-background="new 0 0 26 26" xml:space="preserve">
<path d="M20,10.2V8c0-3.9-3.1-7-7-7c-3.8,0-7,3.1-7,7v2.2c-1.2,0.4-2,1.5-2,2.8v8c0,1.7,1.4,3,3,3h12c1.7,0,3-1.4,3-3v-8
	C22,11.7,21.1,10.6,20,10.2z M13,2.7c2.9,0,5.3,2.4,5.3,5.3v2H7.7V8C7.7,5.1,10.1,2.7,13,2.7z M14.5,20.4c0.1,0.3-0.1,0.5-0.4,0.5
	h-2.2c-0.3,0-0.4-0.2-0.4-0.5l0.8-3.3c-0.8-0.3-1.3-1-1.3-1.9c0-1.1,0.9-2,2-2c1.1,0,2,0.9,2,2c0,0.9-0.5,1.6-1.3,1.9L14.5,20.4z"/>
</svg>
