<?xml version="1.0" encoding="utf-8"?>
<!-- Generator: Adobe Illustrator 18.0.0, SVG Export Plug-In . SVG Version: 6.00 Build 0)  -->
<!DOCTYPE svg PUBLIC "-//W3C//DTD SVG 1.1//EN" "http://www.w3.org/Graphics/SVG/1.1/DTD/svg11.dtd">
<svg version="1.1" id="图层_1" xmlns="http://www.w3.org/2000/svg" xmlns:xlink="http://www.w3.org/1999/xlink" x="0px" y="0px"
	 viewBox="0 0 20 20" enable-background="new 0 0 20 20" xml:space="preserve">
<g>
	<path d="M10,1.2c-4.9,0-8.8,3.9-8.8,8.8c0,4.9,3.9,8.8,8.8,8.8s8.8-3.9,8.8-8.8C18.8,5.1,14.9,1.2,10,1.2z M10,17.5
		c-4.1,0-7.5-3.4-7.5-7.5c0-4.1,3.4-7.5,7.5-7.5s7.5,3.4,7.5,7.5C17.5,14.1,14.1,17.5,10,17.5z"/>
	<circle cx="10.1" cy="5.2" r="0.7"/>
	<path d="M9.5,6.7H8.6C8.3,6.7,8,7,8,7.4S8.3,8,8.6,8l0.8,0v6.8c0,0.4,0.3,0.7,0.7,0.7s0.7-0.3,0.7-0.7V8C10.7,7.3,10.1,6.7,9.5,6.7
		z"/>
</g>
</svg>
