<?xml version="1.0" encoding="utf-8"?>
<!-- Generator: Adobe Illustrator 18.0.0, SVG Export Plug-In . SVG Version: 6.00 Build 0)  -->
<!DOCTYPE svg PUBLIC "-//W3C//DTD SVG 1.1//EN" "http://www.w3.org/Graphics/SVG/1.1/DTD/svg11.dtd">
<svg version="1.1" id="图层_1" xmlns="http://www.w3.org/2000/svg" xmlns:xlink="http://www.w3.org/1999/xlink" x="0px" y="0px"
	 viewBox="0 0 20 20" enable-background="new 0 0 20 20" xml:space="preserve">
<path fill="#767B80" d="M5.6,2"/>
<g>
	<path d="M19.2,8.9c-1.8-3.2-5.3-5.3-9.2-5.3S2.7,5.7,0.8,8.9c-0.4,0.7-0.4,1.6,0,2.3c1.8,3.2,5.3,5.3,9.2,5.3s7.3-2.1,9.2-5.3
		C19.6,10.4,19.6,9.6,19.2,8.9z M10,15c-2.8,0-5-2.2-5-5s2.2-5,5-5s5,2.2,5,5S12.8,15,10,15z"/>
	<circle cx="10" cy="10" r="2"/>
</g>
</svg>
