<?xml version="1.0" encoding="utf-8"?>
<!-- Generator: Adobe Illustrator 18.0.0, SVG Export Plug-In . SVG Version: 6.00 Build 0)  -->
<!DOCTYPE svg PUBLIC "-//W3C//DTD SVG 1.1//EN" "http://www.w3.org/Graphics/SVG/1.1/DTD/svg11.dtd">
<svg version="1.1" id="图层_1" xmlns="http://www.w3.org/2000/svg" xmlns:xlink="http://www.w3.org/1999/xlink" x="0px" y="0px"
	 viewBox="0 0 20 20" enable-background="new 0 0 20 20" xml:space="preserve">
<g>
	<path d="M14.1,6.5h-0.9c-0.4,0-0.6,0.3-0.6,0.6c0,0.4,0.3,0.6,0.6,0.6h0.9c0.7,0,1.4,0.6,1.4,1.4v7.2c0,0.8-0.6,1.4-1.4,1.4H5.9
		c-0.7,0-1.4-0.6-1.4-1.4V9.2c0-0.8,0.6-1.4,1.4-1.4h0.9c0.4,0,0.6-0.3,0.6-0.6c0-0.4-0.3-0.6-0.6-0.6H5.9c-1.5,0-2.6,1.2-2.6,2.6
		v7.2c0,1.5,1.2,2.6,2.6,2.6h8.1c1.5,0,2.6-1.2,2.6-2.6V9.2C16.7,7.7,15.5,6.5,14.1,6.5z"/>
	<path d="M6.7,5.6c0.2,0,0.3-0.1,0.4-0.2l2.2-2.2v9.6c0,0.4,0.3,0.6,0.6,0.6c0.4,0,0.6-0.3,0.6-0.6V3.2l2.2,2.2
		c0.1,0.1,0.3,0.2,0.4,0.2s0.3-0.1,0.4-0.2c0.2-0.2,0.2-0.7,0-0.9l-3.3-3.3c-0.1-0.1-0.1-0.1-0.2-0.1C10.1,1,9.9,1,9.8,1
		c-0.1,0-0.1,0.1-0.2,0.1L6.3,4.5C6,4.7,6,5.1,6.3,5.4C6.4,5.5,6.5,5.6,6.7,5.6z"/>
</g>
</svg>
