<?xml version="1.0" encoding="utf-8"?>
<!-- Generator: Adobe Illustrator 18.0.0, SVG Export Plug-In . SVG Version: 6.00 Build 0)  -->
<!DOCTYPE svg PUBLIC "-//W3C//DTD SVG 1.1//EN" "http://www.w3.org/Graphics/SVG/1.1/DTD/svg11.dtd">
<svg version="1.1" id="图层_1" xmlns="http://www.w3.org/2000/svg" xmlns:xlink="http://www.w3.org/1999/xlink" x="0px" y="0px"
	 viewBox="0 0 20 20" enable-background="new 0 0 20 20" xml:space="preserve">
<g>
	<path d="M15.3,1.3H4.7C3.2,1.3,2,2.5,2,4v12c0,1.5,1.2,2.7,2.7,2.7h10.6c1.5,0,2.7-1.2,2.7-2.7V4C18,2.5,16.8,1.3,15.3,1.3z
		 M16.6,16c0,0.7-0.6,1.3-1.3,1.3H4.7c-0.7,0-1.3-0.6-1.3-1.3V4c0-0.7,0.6-1.4,1.3-1.4h10.6c0.7,0,1.3,0.6,1.3,1.4V16z"/>
	<circle cx="6.2" cy="5.6" r="1.2"/>
	<path d="M14.5,4.9H9c-0.4,0-0.7,0.3-0.7,0.6S8.7,6.2,9,6.2h5.5c0.4,0,0.7-0.3,0.7-0.6S14.9,4.9,14.5,4.9z"/>
	<circle cx="6.2" cy="10" r="1.2"/>
	<path d="M14.5,9.3H9c-0.4,0-0.7,0.3-0.7,0.6s0.3,0.6,0.7,0.6h5.5c0.4,0,0.7-0.3,0.7-0.6S14.9,9.3,14.5,9.3z"/>
	<circle cx="6.2" cy="14.4" r="1.2"/>
	<path d="M14.5,13.7H9c-0.4,0-0.7,0.3-0.7,0.7S8.7,15,9,15h5.5c0.4,0,0.7-0.3,0.7-0.7S14.9,13.7,14.5,13.7z"/>
</g>
</svg>
