<?xml version="1.0" encoding="utf-8"?>
<!-- Generator: Adobe Illustrator 18.0.0, SVG Export Plug-In . SVG Version: 6.00 Build 0)  -->
<!DOCTYPE svg PUBLIC "-//W3C//DTD SVG 1.1//EN" "http://www.w3.org/Graphics/SVG/1.1/DTD/svg11.dtd">
<svg version="1.1" id="图层_1" xmlns="http://www.w3.org/2000/svg" xmlns:xlink="http://www.w3.org/1999/xlink" x="0px" y="0px"
	 viewBox="0 0 26 26" enable-background="new 0 0 26 26" xml:space="preserve">
<g>
	<path d="M13,10.3L13,10.3c-1.5,0-2.8,1.2-2.8,2.7V13c0,1.5,1.2,2.7,2.7,2.7H13c1.5,0,2.7-1.2,2.7-2.7V13
		C15.7,11.5,14.5,10.3,13,10.3z"/>
	<path d="M6,10.3L6,10.3c-1.5,0-2.8,1.2-2.8,2.7V13c0,1.5,1.2,2.7,2.7,2.7H6c1.5,0,2.7-1.2,2.7-2.7V13C8.7,11.5,7.5,10.3,6,10.3z"/>
	<path d="M20.1,10.3L20.1,10.3c-1.5,0-2.8,1.2-2.8,2.7V13c0,1.5,1.2,2.7,2.7,2.7h0.1c1.5,0,2.7-1.2,2.7-2.7V13
		C22.8,11.5,21.6,10.3,20.1,10.3z"/>
	<path d="M13,3.2L13,3.2c-1.5,0-2.8,1.2-2.8,2.7V6c0,1.5,1.2,2.7,2.7,2.7H13c1.5,0,2.7-1.2,2.7-2.7V5.9C15.7,4.4,14.5,3.2,13,3.2z"
		/>
	<path d="M6,3.2L6,3.2c-1.5,0-2.8,1.2-2.8,2.7V6c0,1.5,1.2,2.7,2.7,2.7H6c1.5,0,2.7-1.2,2.7-2.7V5.9C8.7,4.4,7.5,3.2,6,3.2z"/>
	<path d="M20.1,3.2L20.1,3.2c-1.5,0-2.8,1.2-2.8,2.7V6c0,1.5,1.2,2.7,2.7,2.7h0.1c1.5,0,2.7-1.2,2.7-2.7V5.9
		C22.8,4.4,21.6,3.2,20.1,3.2z"/>
	<path d="M13,17.3L13,17.3c-1.5,0-2.8,1.2-2.8,2.7v0.1c0,1.5,1.2,2.7,2.7,2.7H13c1.5,0,2.7-1.2,2.7-2.7V20
		C15.7,18.5,14.5,17.3,13,17.3z"/>
	<path d="M6,17.3L6,17.3c-1.5,0-2.8,1.2-2.8,2.7v0.1c0,1.5,1.2,2.7,2.7,2.7H6c1.5,0,2.7-1.2,2.7-2.7V20C8.7,18.5,7.5,17.3,6,17.3z"
		/>
	<path d="M20.1,17.3L20.1,17.3c-1.5,0-2.8,1.2-2.8,2.7v0.1c0,1.5,1.2,2.7,2.7,2.7h0.1c1.5,0,2.7-1.2,2.7-2.7V20
		C22.8,18.5,21.6,17.3,20.1,17.3z"/>
</g>
</svg>
