<?xml version="1.0" encoding="utf-8"?>
<!-- Generator: Adobe Illustrator 18.0.0, SVG Export Plug-In . SVG Version: 6.00 Build 0)  -->
<!DOCTYPE svg PUBLIC "-//W3C//DTD SVG 1.1//EN" "http://www.w3.org/Graphics/SVG/1.1/DTD/svg11.dtd">
<svg version="1.1" id="图层_1" xmlns="http://www.w3.org/2000/svg" xmlns:xlink="http://www.w3.org/1999/xlink" x="0px" y="0px"
	 viewBox="0 0 26 26" enable-background="new 0 0 26 26" xml:space="preserve">
<g>
	<path d="M24.2,21.5c-0.1-0.4-0.3-0.8-0.6-1.1l-2.6-2l-1.4-1.1l1.7-2.2c0.3-0.4,0.3-0.8,0.1-1.1s-0.5-0.6-1-0.6l-3.7-0.1L13,13.2
		c-0.4,0-0.7,0.2-0.9,0.4s-0.3,0.6-0.2,1l1,3.6l1,3.6c0.1,0.4,0.5,0.7,0.9,0.8s0.8,0,1.1-0.4l1.7-2.2L19,21l2.6,2
		c0.4,0.3,0.8,0.4,1.2,0.3s0.8-0.3,1.1-0.6C24.2,22.4,24.3,21.9,24.2,21.5z"/>
	<circle cx="5.1" cy="5.3" r="2.7"/>
	<circle cx="3.4" cy="12.6" r="1.7"/>
	<circle cx="10" cy="10.7" r="1.2"/>
	<circle cx="7.8" cy="18.2" r="2.2"/>
	<circle cx="14.8" cy="7.4" r="2"/>
</g>
</svg>
