<?xml version="1.0" encoding="utf-8"?>
<!-- Generator: Adobe Illustrator 18.0.0, SVG Export Plug-In . SVG Version: 6.00 Build 0)  -->
<!DOCTYPE svg PUBLIC "-//W3C//DTD SVG 1.1//EN" "http://www.w3.org/Graphics/SVG/1.1/DTD/svg11.dtd">
<svg version="1.1" id="图层_1" xmlns="http://www.w3.org/2000/svg" xmlns:xlink="http://www.w3.org/1999/xlink" x="0px" y="0px"
	 viewBox="0 0 20 20" enable-background="new 0 0 20 20" xml:space="preserve">
<g>
	<path d="M17.9,9.5c0-0.4-0.4-0.6-0.7-0.6c-0.4,0-0.6,0.3-0.6,0.7c0.1,1.9-0.6,3.8-1.9,5.1c-1.3,1.3-2.9,1.9-4.7,1.9
		c-1.6,0-3.2-0.6-4.4-1.7h1.7C7.7,15,8,14.7,8,14.3s-0.3-0.7-0.6-0.7H4.1c-0.4,0-0.6,0.3-0.6,0.7v3.3c0,0.4,0.3,0.7,0.6,0.7
		s0.6-0.3,0.6-0.7v-1.7c1.5,1.3,3.3,2.1,5.3,2.1c2.1,0,4.1-0.8,5.6-2.3C17.2,14,18.1,11.7,17.9,9.5z"/>
	<path d="M5.3,5.3C6.5,4.1,8.2,3.4,10,3.4c1.6,0,3.2,0.6,4.4,1.7h-1.7C12.3,5,12,5.3,12,5.7s0.3,0.6,0.7,0.6h3.3
		c0.4,0,0.7-0.3,0.7-0.6V2.4c0-0.4-0.3-0.6-0.7-0.6s-0.7,0.3-0.7,0.6v1.7C13.8,2.8,12,2.1,10,2.1c-2.1,0-4.1,0.8-5.6,2.3
		C2.8,6,1.9,8.3,2.1,10.5c0,0.3,0.3,0.6,0.6,0.6c0,0,0,0,0,0c0.4,0,0.6-0.3,0.6-0.7C3.2,8.5,3.9,6.7,5.3,5.3z"/>
</g>
</svg>
