<?xml version="1.0" encoding="utf-8"?>
<!-- Generator: Adobe Illustrator 18.0.0, SVG Export Plug-In . SVG Version: 6.00 Build 0)  -->
<!DOCTYPE svg PUBLIC "-//W3C//DTD SVG 1.1//EN" "http://www.w3.org/Graphics/SVG/1.1/DTD/svg11.dtd">
<svg version="1.1" id="图层_1" xmlns="http://www.w3.org/2000/svg" xmlns:xlink="http://www.w3.org/1999/xlink" x="0px" y="0px"
	 viewBox="0 0 20 20" enable-background="new 0 0 20 20" xml:space="preserve">
<g>
	<path d="M12,8c0,0.4,0.3,0.7,0.7,0.7s0.7-0.3,0.7-0.7c0-1.3-1.2-2.5-2.7-2.7V4.6c0-0.4-0.3-0.7-0.7-0.7S9.3,4.2,9.3,4.6v0.7
		C7.8,5.6,6.6,6.7,6.6,8s1.2,2.5,2.7,2.7v2.8C8.5,13.4,8,12.8,8,12.3c0-0.4-0.3-0.7-0.7-0.7s-0.7,0.3-0.7,0.7c0,1.3,1.2,2.5,2.7,2.7
		v0.4c0,0.4,0.3,0.7,0.7,0.7s0.7-0.3,0.7-0.7V15c1.5-0.3,2.7-1.4,2.7-2.7s-1.2-2.5-2.7-2.7V6.7C11.4,6.9,12,7.5,12,8z M8,8
		c0-0.6,0.5-1.1,1.3-1.3v2.6C8.5,9.1,8,8.6,8,8z M12,12.3c0,0.6-0.5,1.1-1.3,1.3v-2.6C11.4,11.2,12,11.7,12,12.3z"/>
	<path d="M14.7,1.3H5.3c-1.6,0-2.9,1.3-2.9,2.9v11.7c0,1.6,1.3,2.9,2.9,2.9h9.5c1.6,0,2.9-1.3,2.9-2.9V4.2
		C17.6,2.6,16.3,1.3,14.7,1.3z M16.2,15.8c0,0.8-0.7,1.5-1.5,1.5H5.3c-0.8,0-1.5-0.7-1.5-1.5V4.2c0-0.8,0.7-1.5,1.5-1.5h9.5
		c0.8,0,1.5,0.7,1.5,1.5V15.8z"/>
</g>
</svg>
