<?xml version="1.0" encoding="utf-8"?>
<!-- Generator: Adobe Illustrator 18.0.0, SVG Export Plug-In . SVG Version: 6.00 Build 0)  -->
<!DOCTYPE svg PUBLIC "-//W3C//DTD SVG 1.1//EN" "http://www.w3.org/Graphics/SVG/1.1/DTD/svg11.dtd">
<svg version="1.1" id="图层_1" xmlns="http://www.w3.org/2000/svg" xmlns:xlink="http://www.w3.org/1999/xlink" x="0px" y="0px"
	 viewBox="0 0 20 20" enable-background="new 0 0 20 20" xml:space="preserve">
<g>
	<path d="M10,0.3c-5,0-9.1,3.6-9.1,8c0,3.5,2.5,6.5,6.3,7.6l-0.8,2.2c-0.1,0.4-0.1,0.7,0.1,1c0.2,0.3,0.6,0.5,0.9,0.5
		c0.3,0,0.5-0.1,0.7-0.3l0.7-0.6c1.5-1.3,3.2-2.4,5.5-3.5c2.9-1.4,4.8-4.1,4.8-7C19.1,3.9,15,0.3,10,0.3z M13.7,14.1
		c-2.3,1.1-4.2,2.3-5.7,3.6l0.4-1.3c0.1-0.4,0.1-0.8-0.1-1.1c-0.2-0.3-0.5-0.6-0.8-0.7c-3.1-0.9-5.3-3.4-5.3-6.3
		c0-3.6,3.5-6.6,7.7-6.6s7.7,3,7.7,6.6C17.7,10.7,16.2,12.9,13.7,14.1z"/>
	<circle cx="10.1" cy="12" r="1"/>
	<path d="M10.1,9.8c0.4,0,0.7-0.3,0.7-0.7V4.2c0-0.4-0.3-0.7-0.7-0.7S9.4,3.8,9.4,4.2v4.9C9.4,9.5,9.7,9.8,10.1,9.8z"/>
</g>
</svg>
