<?xml version="1.0" encoding="utf-8"?>
<!-- Generator: Adobe Illustrator 21.0.0, SVG Export Plug-In . SVG Version: 6.00 Build 0)  -->
<svg version="1.1" id="图层_1" xmlns="http://www.w3.org/2000/svg" xmlns:xlink="http://www.w3.org/1999/xlink" x="0px" y="0px"
	 viewBox="0 0 20 20" style="enable-background:new 0 0 20 20;" xml:space="preserve">
<g>
	<path d="M13.1,3.5H6.9c-3.5,0-6.4,2.9-6.4,6.4v0.1c0,3.5,2.9,6.4,6.4,6.4h6.1c3.5,0,6.4-2.9,6.4-6.4V9.9
		C19.5,6.4,16.6,3.5,13.1,3.5z M18.5,10.1c0,3-2.4,5.4-5.4,5.4H6.9c-3,0-5.4-2.4-5.4-5.4V9.9c0-3,2.4-5.4,5.4-5.4h6.1
		c3,0,5.4,2.4,5.4,5.4V10.1z"/>
	<path d="M8.6,7.2C8.3,6.9,7.8,7.1,7.8,7.5v4.9c0,0.4,0.5,0.6,0.8,0.3l3.5-2.5c0.2-0.2,0.2-0.5,0-0.7L8.6,7.2z"/>
</g>
</svg>
