<?xml version="1.0" encoding="utf-8"?>
<!-- Generator: Adobe Illustrator 19.0.0, SVG Export Plug-In . SVG Version: 6.00 Build 0)  -->
<svg version="1.1" id="图层_1" xmlns="http://www.w3.org/2000/svg" xmlns:xlink="http://www.w3.org/1999/xlink" x="0px" y="0px"
	 viewBox="0 0 20 20" style="enable-background:new 0 0 20 20;" xml:space="preserve">
<g>
	<path d="M15.8,8.8V7.1c0-2.8-2-5.1-4.6-5.7c0,0,0-0.1,0-0.1c0-0.7-0.5-1.2-1.2-1.2S8.8,0.6,8.8,1.3c0,0,0,0.1,0,0.1
		C6.2,2,4.2,4.3,4.2,7.1v1.7c-1.7,1.2-2.7,3.1-2.7,5.1v0.8c0,1.1,0.9,1.9,1.9,1.9h13.2c1.1,0,1.9-0.9,1.9-1.9v-0.8
		C18.5,11.9,17.5,10,15.8,8.8z M17.1,14.7c0,0.3-0.2,0.5-0.5,0.5H3.4c-0.3,0-0.5-0.2-0.5-0.5v-0.8c0-1.7,0.9-3.3,2.4-4.1l0.4-0.2
		V7.1c0-2.4,2-4.3,4.3-4.3s4.3,2,4.3,4.3v2.5l0.4,0.2c1.5,0.9,2.4,2.4,2.4,4.1V14.7z"/>
	<path d="M11.8,17.7H8.2c-0.2,0-0.3,0.2-0.3,0.4c0.2,1,1.1,1.8,2.1,1.8s2-0.8,2.1-1.8C12.2,17.9,12,17.7,11.8,17.7z"/>
</g>
</svg>
