<?xml version="1.0" encoding="utf-8"?>
<!-- Generator: Adobe Illustrator 18.0.0, SVG Export Plug-In . SVG Version: 6.00 Build 0)  -->
<!DOCTYPE svg PUBLIC "-//W3C//DTD SVG 1.1//EN" "http://www.w3.org/Graphics/SVG/1.1/DTD/svg11.dtd">
<svg version="1.1" id="图层_1" xmlns="http://www.w3.org/2000/svg" xmlns:xlink="http://www.w3.org/1999/xlink" x="0px" y="0px"
	 viewBox="0 0 24 24" enable-background="new 0 0 24 24" xml:space="preserve">
<path d="M12,24c6.6,0,12-5.4,12-12S18.6,0,12,0S0,5.4,0,12C0,18.6,5.4,24,12,24z M8.3,10.5L13,5.7c0.1-0.1,0.3-0.2,0.5-0.2
	s0.4,0.1,0.5,0.2c0.3,0.3,0.3,0.8,0,1.1l-4.7,4.7c-0.3,0.3-0.3,0.7,0,1l4.7,4.7c0.3,0.3,0.3,0.8,0,1.1c-0.3,0.3-0.8,0.3-1.1,0
	l-4.7-4.7C7.5,12.7,7.5,11.3,8.3,10.5z"/>
</svg>
