<?xml version="1.0" encoding="utf-8"?>
<!-- Generator: Adobe Illustrator 18.0.0, SVG Export Plug-In . SVG Version: 6.00 Build 0)  -->
<!DOCTYPE svg PUBLIC "-//W3C//DTD SVG 1.1//EN" "http://www.w3.org/Graphics/SVG/1.1/DTD/svg11.dtd">
<svg version="1.1" id="图层_1" xmlns="http://www.w3.org/2000/svg" xmlns:xlink="http://www.w3.org/1999/xlink" x="0px" y="0px"
	 viewBox="0 0 20 20" enable-background="new 0 0 20 20" xml:space="preserve">
<g>
	<path d="M5,10.2l4.4-4.4c0.3-0.3,0.8-0.3,1.2,0l4.4,4.4c0.2,0.2,0.6,0.2,0.9,0c0.2-0.2,0.2-0.6,0-0.9L11.4,5
		c-0.8-0.8-2.1-0.8-2.9,0L4.2,9.4C4.1,9.5,4,9.7,4,9.8s0.1,0.3,0.2,0.4C4.4,10.5,4.8,10.5,5,10.2z"/>
	<path d="M11.4,10.1c-0.8-0.8-2.1-0.8-2.9,0l-4.4,4.4C4.1,14.6,4,14.8,4,14.9s0.1,0.3,0.2,0.4c0.2,0.2,0.6,0.2,0.9,0L9.4,11
		c0.3-0.3,0.8-0.3,1.2,0l4.4,4.4c0.2,0.2,0.6,0.2,0.9,0c0.2-0.2,0.2-0.6,0-0.9L11.4,10.1z"/>
</g>
</svg>
