<?xml version="1.0" encoding="utf-8"?>
<!-- Generator: Adobe Illustrator 18.0.0, SVG Export Plug-In . SVG Version: 6.00 Build 0)  -->
<!DOCTYPE svg PUBLIC "-//W3C//DTD SVG 1.1//EN" "http://www.w3.org/Graphics/SVG/1.1/DTD/svg11.dtd">
<svg version="1.1" id="图层_1" xmlns="http://www.w3.org/2000/svg" xmlns:xlink="http://www.w3.org/1999/xlink" x="0px" y="0px"
	 viewBox="0 0 20 20" enable-background="new 0 0 20 20" xml:space="preserve">
<path d="M17.4,13L13.1,9l2-2.2c0.6-0.6,0.7-1.4,0.5-2.2c-0.3-0.8-1-1.3-1.8-1.4L4.1,2.1C3.4,2,2.7,2.2,2.3,2.7
	C1.8,3.2,1.6,3.9,1.7,4.6l1.7,9.6C3.6,15,4.2,15.7,5,15.9c0.8,0.2,1.6,0,2.2-0.6l2-2.2l4.3,4.1c0.5,0.5,1.2,0.8,2,0.8l0.1,0
	c0.8,0,1.5-0.3,2-0.9c0.5-0.6,0.8-1.3,0.8-2C18.3,14.2,18,13.5,17.4,13z M16.5,16.1c-0.3,0.3-0.6,0.4-1,0.5l0,0.7v-0.7
	c-0.4,0-0.7-0.1-1-0.4l-5.3-5l-3,3.2c-0.3,0.3-0.5,0.3-0.8,0.2c-0.3-0.1-0.5-0.3-0.5-0.6L3.1,4.3c0-0.2,0-0.5,0.2-0.6
	c0.1-0.2,0.4-0.2,0.6-0.2l9.7,1.1c0.3,0,0.5,0.2,0.6,0.5c0.1,0.3,0,0.6-0.2,0.8l-3,3.2l5.3,5c0.3,0.3,0.4,0.6,0.5,1
	C16.9,15.4,16.8,15.8,16.5,16.1z"/>
</svg>
