<?xml version="1.0" encoding="utf-8"?>
<!-- Generator: Adobe Illustrator 18.0.0, SVG Export Plug-In . SVG Version: 6.00 Build 0)  -->
<!DOCTYPE svg PUBLIC "-//W3C//DTD SVG 1.1//EN" "http://www.w3.org/Graphics/SVG/1.1/DTD/svg11.dtd">
<svg version="1.1" id="图层_1" xmlns="http://www.w3.org/2000/svg" xmlns:xlink="http://www.w3.org/1999/xlink" x="0px" y="0px"
	 viewBox="0 0 26 26" enable-background="new 0 0 26 26" xml:space="preserve">
<g>
	<path d="M25,21.9c-0.1-0.4-0.3-0.8-0.6-1.1l-2.6-2l-1.4-1.1l1.7-2.2c0.3-0.4,0.3-0.8,0.1-1.1c-0.2-0.4-0.5-0.6-1-0.6l-3.7-0.1
		l-3.7-0.1c-0.4,0-0.7,0.2-0.9,0.4c-0.2,0.3-0.3,0.6-0.2,1l1,3.6l1,3.6c0.1,0.4,0.5,0.7,0.8,0.8c0.4,0.1,0.8,0,1.1-0.4l1.7-2.2
		l1.4,1.1l2.6,2c0.4,0.3,0.8,0.4,1.2,0.3c0.4-0.1,0.8-0.3,1.1-0.6C25,22.7,25.1,22.3,25,21.9z"/>
	<path d="M12.7,22c-0.3,0-0.7,0.1-1,0.1c-5,0-9.1-4.1-9.1-9.1s4.1-9.1,9.1-9.1c4.6,0,8.4,3.4,9,7.9c0.1,0.5,0.5,0.8,0.9,0.7
		c0.5-0.1,0.8-0.5,0.7-0.9c-0.7-5.4-5.2-9.4-10.6-9.4C5.8,2.3,1,7.1,1,13c0,5.9,4.8,10.7,10.7,10.7c0.4,0,0.8,0,1.2-0.1
		c0.5,0,0.8-0.5,0.7-0.9C13.6,22.2,13.2,21.9,12.7,22z"/>
	<path d="M17.4,11.9c0.1,0.4,0.5,0.7,1,0.7c0.4-0.1,0.7-0.5,0.7-1c-0.7-3.5-3.8-6-7.3-6c-4.1,0-7.5,3.3-7.5,7.5s3.3,7.5,7.5,7.5
		c0.1,0,0.1,0,0.2,0c0.5,0,0.8-0.4,0.8-0.8c0-0.5-0.4-0.8-0.8-0.8l-0.2,0c-3.2,0-5.8-2.6-5.8-5.8s2.6-5.8,5.8-5.8
		C14.5,7.2,16.9,9.1,17.4,11.9z"/>
	<path d="M11.7,10.5c1,0,1.9,0.6,2.3,1.5c0.2,0.4,0.7,0.6,1.1,0.4c0.4-0.2,0.6-0.7,0.4-1.1c-0.7-1.5-2.1-2.5-3.8-2.5
		c-2.3,0-4.1,1.9-4.1,4.1c0,1.9,1.3,3.6,3.2,4c0.1,0,0.1,0,0.2,0c0.4,0,0.7-0.3,0.8-0.6c0.1-0.4-0.2-0.9-0.6-1
		C10,15.1,9.2,14.1,9.2,13C9.2,11.6,10.4,10.5,11.7,10.5z"/>
</g>
</svg>
