<?xml version="1.0" encoding="utf-8"?>
<!-- Generator: Adobe Illustrator 18.0.0, SVG Export Plug-In . SVG Version: 6.00 Build 0)  -->
<!DOCTYPE svg PUBLIC "-//W3C//DTD SVG 1.1//EN" "http://www.w3.org/Graphics/SVG/1.1/DTD/svg11.dtd">
<svg version="1.1" id="图层_1" xmlns="http://www.w3.org/2000/svg" xmlns:xlink="http://www.w3.org/1999/xlink" x="0px" y="0px"
	 viewBox="0 0 26 26" enable-background="new 0 0 26 26" xml:space="preserve">
<g>
	<path d="M5,20.3h2.6c0.6,0,1-0.4,1-1v-7.8c0-0.6-0.4-1-1-1H5c-0.6,0-1,0.4-1,1v7.8C4,19.9,4.4,20.3,5,20.3z"/>
	<path d="M11.7,20.3h2.6c0.6,0,1-0.4,1-1v-16c0-0.6-0.4-1-1-1h-2.6c-0.6,0-1,0.4-1,1v16C10.7,19.9,11.1,20.3,11.7,20.3z"/>
	<path d="M18.4,20.3H21c0.6,0,1-0.4,1-1V8.9c0-0.6-0.4-1-1-1h-2.6c-0.6,0-1,0.4-1,1v10.4C17.4,19.9,17.8,20.3,18.4,20.3z"/>
	<path d="M22,22H4c-0.5,0-0.8,0.4-0.8,0.8s0.4,0.8,0.8,0.8h18c0.5,0,0.8-0.4,0.8-0.8S22.5,22,22,22z"/>
</g>
</svg>
