<?xml version="1.0" encoding="utf-8"?>
<!-- Generator: Adobe Illustrator 18.0.0, SVG Export Plug-In . SVG Version: 6.00 Build 0)  -->
<!DOCTYPE svg PUBLIC "-//W3C//DTD SVG 1.1//EN" "http://www.w3.org/Graphics/SVG/1.1/DTD/svg11.dtd">
<svg version="1.1" id="图层_1" xmlns="http://www.w3.org/2000/svg" xmlns:xlink="http://www.w3.org/1999/xlink" x="0px" y="0px"
	 viewBox="0 0 38 38" enable-background="new 0 0 38 38" xml:space="preserve">
<polygon fill="#A8A8A8" points="-7.9,459 -27.9,459 -47.9,459 -47.9,439 -47.9,419 -27.9,419 -7.9,419 -7.9,439 "/>
<path fill="#767B80" d="M-13.8,423.7h-14h-14c-0.7,0-1.3,0.3-1.8,0.7s-0.7,1.1-0.7,1.8v10.7v10.7c0,0.7,0.3,1.3,0.7,1.8
	s1.1,0.7,1.8,0.7h4.9h4.9l-0.9,2.9l-0.9,2.9h-1h-1c-0.1,0-0.2,0-0.3,0.1c-0.1,0.1-0.1,0.2-0.1,0.3s0,0.2,0.1,0.3s0.2,0.1,0.3,0.1
	h7.9h7.9c0.1,0,0.2,0,0.3-0.1c0.1-0.1,0.1-0.2,0.1-0.3s0-0.2-0.1-0.3c-0.1-0.1-0.2-0.1-0.3-0.1h-1h-1l-0.9-2.9l-0.9-2.9h4.9h4.9
	c0.7,0,1.3-0.3,1.8-0.7c0.5-0.5,0.7-1.1,0.7-1.8v-10.7v-10.7c0-0.7-0.3-1.3-0.7-1.8C-12.5,424-13.2,423.7-13.8,423.7z M-13.4,444.6
	h-14.4h-14.4v-9.3v-9.3h14.4h14.4v9.3V444.6z"/>
<g>
	<defs>
		<rect id="SVGID_1_" x="-692" y="-444" width="1440" height="900"/>
	</defs>
	<clipPath id="SVGID_2_">
		<use xlink:href="#SVGID_1_"  overflow="visible"/>
	</clipPath>
	<g clip-path="url(#SVGID_2_)">
		<defs>
			<rect id="SVGID_3_" x="-692" y="-344" width="1440" height="800"/>
		</defs>
		<clipPath id="SVGID_4_">
			<use xlink:href="#SVGID_3_"  overflow="visible"/>
		</clipPath>
		<g clip-path="url(#SVGID_4_)" enable-background="new    ">
			<g>
				<defs>
					<rect id="SVGID_5_" x="176" y="-258" width="8" height="5"/>
				</defs>
				<clipPath id="SVGID_6_">
					<use xlink:href="#SVGID_5_"  overflow="visible"/>
				</clipPath>
				<g clip-path="url(#SVGID_6_)">
					<defs>
						<path id="SVGID_7_" d="M177-254.3l2.9-2.7c0.2-0.2,0.6-0.2,0.8,0l2.9,2.7c0.4,0.4,0.1,1-0.4,1h-5.9
							C176.9-253.2,176.6-253.9,177-254.3"/>
					</defs>
					<clipPath id="SVGID_8_">
						<use xlink:href="#SVGID_7_"  overflow="visible"/>
					</clipPath>
					<g clip-path="url(#SVGID_8_)">
						<defs>
							<rect id="SVGID_9_" x="176" y="-258" width="8" height="5"/>
						</defs>
						<clipPath id="SVGID_10_">
							<use xlink:href="#SVGID_9_"  overflow="visible"/>
						</clipPath>
						<rect x="171.8" y="-262.1" clip-path="url(#SVGID_10_)" fill="#BBBBBB" width="17.1" height="13.9"/>
					</g>
				</g>
			</g>
		</g>
	</g>
</g>
<path d="M19,4C10.7,4,4,10.7,4,19c0,8.3,6.7,15,15,15s15-6.7,15-15C34,10.7,27.3,4,19,4z M12,21c-1.1,0-2-0.9-2-2c0-1.1,0.9-2,2-2
	s2,0.9,2,2C14,20.1,13.1,21,12,21z M19,21c-1.1,0-2-0.9-2-2c0-1.1,0.9-2,2-2s2,0.9,2,2C21,20.1,20.1,21,19,21z M26,21
	c-1.1,0-2-0.9-2-2c0-1.1,0.9-2,2-2s2,0.9,2,2C28,20.1,27.1,21,26,21z"/>
</svg>
