<?xml version="1.0" encoding="utf-8"?>
<!-- Generator: Adobe Illustrator 18.0.0, SVG Export Plug-In . SVG Version: 6.00 Build 0)  -->
<!DOCTYPE svg PUBLIC "-//W3C//DTD SVG 1.1//EN" "http://www.w3.org/Graphics/SVG/1.1/DTD/svg11.dtd">
<svg version="1.1" id="图层_1" xmlns="http://www.w3.org/2000/svg" xmlns:xlink="http://www.w3.org/1999/xlink" x="0px" y="0px"
	 viewBox="0 0 26 26" enable-background="new 0 0 26 26" xml:space="preserve">
<g>
	<path d="M8.8,15.7H5.7c-1.4,0-2.5,1.1-2.5,2.5v3.2c0,1.4,1.1,2.5,2.5,2.5h3.2c1.4,0,2.5-1.1,2.5-2.5v-3.2
		C11.3,16.9,10.2,15.7,8.8,15.7z"/>
	<path d="M18.3,5.4h-6.7V4.6c0-1.6-1.3-2.8-2.8-2.8H5.7C4.1,1.8,2.9,3,2.9,4.6v3.2c0,1.6,1.3,2.8,2.8,2.8h3.2c1.6,0,2.8-1.3,2.8-2.8
		V7h6.7c1.7,0,3.2,1.4,3.2,3.1v5.7c0,1.7-1.4,3.2-3.2,3.2h0v-1.5c0-0.6-0.5-1-1-1c-0.2,0-0.5,0.1-0.7,0.2L14,19
		c-0.2,0.2-0.3,0.5-0.3,0.8s0.1,0.6,0.3,0.8l2.7,2.3c0.2,0.2,0.4,0.2,0.7,0.2c0.6,0,1-0.5,1-1v-1.5h0c2.6,0,4.8-2.2,4.8-4.8v-5.7
		C23.1,7.5,21,5.4,18.3,5.4z M10,7.8c0,0.6-0.5,1.2-1.2,1.2H5.7C5,8.9,4.5,8.4,4.5,7.8V4.6C4.5,4,5,3.4,5.7,3.4h3.2
		C9.5,3.4,10,4,10,4.6V7.8z"/>
</g>
</svg>
