<?xml version="1.0" encoding="utf-8"?>
<!-- Generator: Adobe Illustrator 21.0.0, SVG Export Plug-In . SVG Version: 6.00 Build 0)  -->
<svg version="1.1" id="图层_1" xmlns="http://www.w3.org/2000/svg" xmlns:xlink="http://www.w3.org/1999/xlink" x="0px" y="0px"
	 viewBox="0 0 20 20" style="enable-background:new 0 0 20 20;" xml:space="preserve">
<g>
	<path d="M15.5,10c0-0.3-0.1-0.6-0.4-0.8L9.7,5.1C9.4,4.9,9,4.9,8.7,5C8.4,5.2,8.2,5.5,8.2,5.9V8c-3.4,0.6-6.4,3.2-7.4,6.4
		c-0.1,0.2,0,0.4,0.2,0.5C1,14.9,1.1,15,1.2,15c0.1,0,0.2,0,0.3-0.1c1.6-1.4,4.3-2.6,6.7-3v2.3c0,0.4,0.2,0.7,0.5,0.9
		C8.8,15,9,15.1,9.1,15.1c0.2,0,0.4-0.1,0.6-0.2l5.4-4.1C15.3,10.6,15.5,10.3,15.5,10z M2.1,13.3C3.3,11.1,5.5,9.4,8,8.8l0,2.1
		C6,11.3,3.8,12.2,2.1,13.3z M14.6,10.1l-5.4,4.1c0,0-0.1,0-0.1,0c0,0-0.1,0-0.1-0.1V5.9c0-0.1,0-0.1,0.1-0.1c0,0,0,0,0.1,0
		c0,0,0,0,0.1,0l5.4,4.1C14.6,9.9,14.6,10,14.6,10.1C14.6,10,14.6,10.1,14.6,10.1z"/>
	<path d="M18.9,9.2l-5.5-4.1c-0.2-0.1-0.4-0.1-0.6,0.1c-0.1,0.2-0.1,0.4,0.1,0.6l5.5,4.1c0,0,0.1,0.1,0.1,0.1s0,0.1,0,0.1l-5.5,4.1
		c-0.2,0.1-0.2,0.4-0.1,0.6c0.1,0.1,0.2,0.2,0.3,0.2c0.1,0,0.2,0,0.2-0.1l5.5-4.1c0.2-0.2,0.4-0.5,0.4-0.8S19.1,9.4,18.9,9.2z"/>
</g>
</svg>
