<?xml version="1.0" encoding="utf-8"?>
<!-- Generator: Adobe Illustrator 18.0.0, SVG Export Plug-In . SVG Version: 6.00 Build 0)  -->
<!DOCTYPE svg PUBLIC "-//W3C//DTD SVG 1.1//EN" "http://www.w3.org/Graphics/SVG/1.1/DTD/svg11.dtd">
<svg version="1.1" id="图层_1" xmlns="http://www.w3.org/2000/svg" xmlns:xlink="http://www.w3.org/1999/xlink" x="0px" y="0px"
	 viewBox="0 0 26 26" enable-background="new 0 0 26 26" xml:space="preserve">
<path d="M20.4,6.2l-4.5,0c-0.5,0-0.9-0.3-1.1-0.8l0-0.1c-0.5-1.3-1.7-2.1-3-2.1H7.4C5.8,3.2,4.5,4.4,4.5,6v3.4
	c-0.5,0.2-1,0.5-1.4,0.9C2.5,11,2.3,12,2.4,12.9l1.2,7.2c0.3,1.6,1.6,2.7,3.2,2.7h1.4h10h2.2c1.8,0,3.2-1.4,3.2-3.2V9.4
	C23.6,7.6,22.2,6.2,20.4,6.2z M22,18.2c0,0.6-0.5,1-1.1,1c-0.5,0-0.9-0.3-1-0.8l-1.3-6.6c-0.3-1.5-1.6-2.6-3.2-2.6H6.2V6
	c0-0.6,0.5-1.2,1.2-1.2h4.3c0.7,0,1.2,0.4,1.5,1l0,0.1c0.4,1.1,1.5,1.8,2.6,1.8l4.5,0c0.9,0,1.6,0.7,1.6,1.6L22,18.2z M6.8,21.2
	c-0.8,0-1.4-0.6-1.6-1.3l-1.2-7.2c-0.1-0.5,0.1-0.9,0.4-1.3s0.7-0.6,1.2-0.6h9.8c0.7,0,1.4,0.5,1.5,1.3l1.3,6.6
	c0.2,1.2,1.3,2.1,2.6,2.1c0.2,0,0.4,0,0.5-0.1c-0.3,0.2-0.6,0.4-1,0.4H6.8z"/>
</svg>
