<?xml version="1.0" encoding="utf-8"?>
<!-- Generator: Adobe Illustrator 18.0.0, SVG Export Plug-In . SVG Version: 6.00 Build 0)  -->
<!DOCTYPE svg PUBLIC "-//W3C//DTD SVG 1.1//EN" "http://www.w3.org/Graphics/SVG/1.1/DTD/svg11.dtd">
<svg version="1.1" id="图层_1" xmlns="http://www.w3.org/2000/svg" xmlns:xlink="http://www.w3.org/1999/xlink" x="0px" y="0px"
	 viewBox="0 0 26 26" enable-background="new 0 0 26 26" xml:space="preserve">
<g>
	<path d="M13,2.2C7,2.2,2.2,7,2.2,13S7,23.8,13,23.8S23.8,19,23.8,13S19,2.2,13,2.2z M13,22.2c-5.1,0-9.2-4.1-9.2-9.2
		S7.9,3.8,13,3.8s9.2,4.1,9.2,9.2S18.1,22.2,13,22.2z"/>
	<path d="M16.4,6l-5.2,4.3c-0.7,0.6-1.2,1.5-1.4,2.4l-1.1,6.7c-0.1,0.5,0.5,0.9,1,0.6l5.2-4.3c0.7-0.6,1.2-1.5,1.4-2.4l1.1-6.7
		C17.4,6,16.8,5.7,16.4,6z M13,14.5c-0.8,0-1.5-0.7-1.5-1.5s0.7-1.5,1.5-1.5s1.5,0.7,1.5,1.5S13.8,14.5,13,14.5z"/>
</g>
</svg>
