<?xml version="1.0" encoding="utf-8"?>
<!-- Generator: Adobe Illustrator 18.0.0, SVG Export Plug-In . SVG Version: 6.00 Build 0)  -->
<!DOCTYPE svg PUBLIC "-//W3C//DTD SVG 1.1//EN" "http://www.w3.org/Graphics/SVG/1.1/DTD/svg11.dtd">
<svg version="1.1" id="图层_1" xmlns="http://www.w3.org/2000/svg" xmlns:xlink="http://www.w3.org/1999/xlink" x="0px" y="0px"
	 viewBox="0 0 20 20" enable-background="new 0 0 20 20" xml:space="preserve">
<g>
	<path d="M11.1,0.3C5.9-0.5,1.4,3.5,1.4,8.5c0,5.8,5,9.5,7.3,10.9c0.6,0.4,1.4,0.4,2.1,0c2.1-1.3,6.9-4.8,7.3-10.3
		C18.2,4.8,15.3,1,11.1,0.3z M9.7,15.4c-3.8,0-6.9-3.1-6.9-6.9c0-3.8,3.1-6.9,6.9-6.9c3.8,0,6.9,3.1,6.9,6.9
		C16.6,12.3,13.5,15.4,9.7,15.4z"/>
	<path d="M9.7,3.3C9.3,3.3,9,3.6,9,4v3.7H6.3C5.9,7.7,5.6,8,5.6,8.4s0.3,0.7,0.7,0.7h3.3c0,0,0,0,0.1,0c0,0,0,0,0.1,0
		c0.4,0,0.7-0.3,0.7-0.7V4C10.4,3.6,10.1,3.3,9.7,3.3z"/>
</g>
</svg>
