<?xml version="1.0" encoding="utf-8"?>
<!-- Generator: Adobe Illustrator 18.0.0, SVG Export Plug-In . SVG Version: 6.00 Build 0)  -->
<!DOCTYPE svg PUBLIC "-//W3C//DTD SVG 1.1//EN" "http://www.w3.org/Graphics/SVG/1.1/DTD/svg11.dtd">
<svg version="1.1" id="图层_1" xmlns="http://www.w3.org/2000/svg" xmlns:xlink="http://www.w3.org/1999/xlink" x="0px" y="0px"
	 viewBox="0 0 20 20" enable-background="new 0 0 20 20" xml:space="preserve">
<g>
	<path d="M7.1,4.5h11.1c0.4,0,0.7-0.3,0.7-0.7s-0.3-0.7-0.7-0.7H7.1c-0.4,0-0.7,0.3-0.7,0.7S6.7,4.5,7.1,4.5z"/>
	<path d="M4,3.1H1.8c-0.4,0-0.7,0.3-0.7,0.7s0.3,0.7,0.7,0.7H4c0.4,0,0.7-0.3,0.7-0.7S4.4,3.1,4,3.1z"/>
	<path d="M18.2,9.3H7.1c-0.4,0-0.7,0.3-0.7,0.7s0.3,0.7,0.7,0.7h11.1c0.4,0,0.7-0.3,0.7-0.7S18.6,9.3,18.2,9.3z"/>
	<path d="M4,9.3H1.8c-0.4,0-0.7,0.3-0.7,0.7s0.3,0.7,0.7,0.7H4c0.4,0,0.7-0.3,0.7-0.7S4.4,9.3,4,9.3z"/>
	<path d="M18.2,15.5H7.1c-0.4,0-0.7,0.3-0.7,0.7s0.3,0.7,0.7,0.7h11.1c0.4,0,0.7-0.3,0.7-0.7S18.6,15.5,18.2,15.5z"/>
	<path d="M4,15.5H1.8c-0.4,0-0.7,0.3-0.7,0.7s0.3,0.7,0.7,0.7H4c0.4,0,0.7-0.3,0.7-0.7S4.4,15.5,4,15.5z"/>
</g>
</svg>
