<?xml version="1.0" encoding="utf-8"?>
<!-- Generator: Adobe Illustrator 18.0.0, SVG Export Plug-In . SVG Version: 6.00 Build 0)  -->
<!DOCTYPE svg PUBLIC "-//W3C//DTD SVG 1.1//EN" "http://www.w3.org/Graphics/SVG/1.1/DTD/svg11.dtd">
<svg version="1.1" id="图层_1" xmlns="http://www.w3.org/2000/svg" xmlns:xlink="http://www.w3.org/1999/xlink" x="0px" y="0px"
	 viewBox="0 0 26 26" enable-background="new 0 0 26 26" xml:space="preserve">
<g>
	<path d="M20.4,19.6H5.6c-1.6,0-2.8-1.3-2.8-2.8V9.1c0-1.6,1.3-2.8,2.8-2.8h14.8c1.6,0,2.8,1.3,2.8,2.8v7.6
		C23.2,18.3,22,19.6,20.4,19.6z M5.6,8C5,8,4.4,8.5,4.4,9.1v7.6c0,0.6,0.5,1.2,1.2,1.2h14.8c0.6,0,1.2-0.5,1.2-1.2V9.1
		C21.6,8.5,21,8,20.4,8H5.6z"/>
	<path d="M5.7,22.6c-0.5,0-0.8-0.4-0.8-0.8c0-0.5,0.4-0.8,0.8-0.8l14.6,0h0c0.5,0,0.8,0.4,0.8,0.8c0,0.5-0.4,0.8-0.8,0.8L5.7,22.6
		L5.7,22.6z"/>
	<path d="M5.7,5.1c-0.5,0-0.8-0.4-0.8-0.8c0-0.5,0.4-0.8,0.8-0.8l14.6,0h0c0.5,0,0.8,0.4,0.8,0.8c0,0.5-0.4,0.8-0.8,0.8L5.7,5.1
		L5.7,5.1z"/>
</g>
</svg>
