<?xml version="1.0" encoding="utf-8"?>
<!-- Generator: Adobe Illustrator 21.0.0, SVG Export Plug-In . SVG Version: 6.00 Build 0)  -->
<svg version="1.1" id="图层_1" xmlns="http://www.w3.org/2000/svg" xmlns:xlink="http://www.w3.org/1999/xlink" x="0px" y="0px"
	 viewBox="0 0 20 20" style="enable-background:new 0 0 20 20;" xml:space="preserve">
<g>
	<path d="M13.3,7.1l-2-2c-0.2-0.2-0.5-0.2-0.6,0l-8.3,8.3c-0.1,0.1-0.2,0.3-0.3,0.5l-0.5,2.4C1.4,16.7,1.7,17,2,17l2.4-0.5
		c0.2,0,0.4-0.1,0.5-0.3l8.3-8.3C13.5,7.6,13.5,7.3,13.3,7.1z"/>
	<path d="M14,6.4c0.2,0.2,0.5,0.2,0.6,0l0.3-0.3c0.7-0.7,0.7-1.9,0-2.6c-0.7-0.7-1.9-0.7-2.6,0L12,3.8c-0.2,0.2-0.2,0.5,0,0.6
		L14,6.4z"/>
	<path d="M10.8,13.5c0,0.3,0.2,0.6,0.6,0.6h6.5c0.3,0,0.6-0.2,0.6-0.6s-0.2-0.6-0.6-0.6h-6.5C11,12.9,10.8,13.2,10.8,13.5z"/>
	<path d="M18,15.9H8c-0.3,0-0.5,0.2-0.5,0.5v0.1C7.5,16.7,7.7,17,8,17h10c0.3,0,0.5-0.2,0.5-0.5v-0.1C18.5,16.1,18.3,15.9,18,15.9z"
		/>
</g>
</svg>
