<?xml version="1.0" encoding="utf-8"?>
<!-- Generator: Adobe Illustrator 18.0.0, SVG Export Plug-In . SVG Version: 6.00 Build 0)  -->
<!DOCTYPE svg PUBLIC "-//W3C//DTD SVG 1.1//EN" "http://www.w3.org/Graphics/SVG/1.1/DTD/svg11.dtd">
<svg version="1.1" id="图层_1" xmlns="http://www.w3.org/2000/svg" xmlns:xlink="http://www.w3.org/1999/xlink" x="0px" y="0px"
	 viewBox="0 0 20 20" enable-background="new 0 0 20 20" xml:space="preserve">
<g>
	<path d="M17.2,5.2V4.3c0-1.5-1.2-2.6-2.6-2.6H5.4C4,1.6,2.8,2.8,2.8,4.3v11.5c0,1.5,1.2,2.6,2.6,2.6h9.2c1.5,0,2.6-1.2,2.6-2.6
		v-0.9c0-0.4-0.3-0.6-0.6-0.6c-0.4,0-0.6,0.3-0.6,0.6v0.9c0,0.7-0.6,1.4-1.4,1.4H5.4c-0.8,0-1.4-0.6-1.4-1.4V4.3
		c0-0.8,0.6-1.4,1.4-1.4h9.2c0.8,0,1.4,0.6,1.4,1.4v0.9c0,0.4,0.3,0.6,0.6,0.6C16.9,5.8,17.2,5.5,17.2,5.2z"/>
	<path d="M12.2,13.2c0,0.2,0.1,0.3,0.2,0.4c0.2,0.2,0.7,0.2,0.9,0l3.3-3.3c0.1-0.1,0.1-0.1,0.1-0.2c0.1-0.2,0.1-0.3,0-0.5
		c0-0.1-0.1-0.1-0.1-0.2l-3.3-3.3C13,6,12.6,6,12.4,6.2c-0.1,0.1-0.2,0.3-0.2,0.4s0.1,0.3,0.2,0.5l2.2,2.2H8c-0.4,0-0.6,0.3-0.6,0.6
		s0.3,0.6,0.6,0.6h6.6l-2.2,2.2C12.2,12.9,12.2,13.1,12.2,13.2z"/>
</g>
</svg>
