<?xml version="1.0" encoding="utf-8"?>
<!-- Generator: Adobe Illustrator 18.0.0, SVG Export Plug-In . SVG Version: 6.00 Build 0)  -->
<!DOCTYPE svg PUBLIC "-//W3C//DTD SVG 1.1//EN" "http://www.w3.org/Graphics/SVG/1.1/DTD/svg11.dtd">
<svg version="1.1" id="图层_1" xmlns="http://www.w3.org/2000/svg" xmlns:xlink="http://www.w3.org/1999/xlink" x="0px" y="0px"
	 viewBox="0 0 24 24" enable-background="new 0 0 24 24" xml:space="preserve">
<path d="M21.8,10L21.8,10l-4.1,0v0h-4.6v4h4.6c-0.8,2.4-3.1,4-5.7,4c-3.3,0-6-2.7-6-6s2.7-6,6-6c1.7,0,3.2,0.7,4.3,1.8L19,4.9
	C17.2,3.1,14.7,2,12,2C6.5,2,2,6.5,2,12c0,5.5,4.5,10,10,10c5.5,0,10-4.5,10-10C22,11.3,21.9,10.6,21.8,10z"/>
</svg>
