<?xml version="1.0" encoding="utf-8"?>
<!-- Generator: Adobe Illustrator 21.0.0, SVG Export Plug-In . SVG Version: 6.00 Build 0)  -->
<svg version="1.1" id="图层_1" xmlns="http://www.w3.org/2000/svg" xmlns:xlink="http://www.w3.org/1999/xlink" x="0px" y="0px"
	 viewBox="0 0 20 20" style="enable-background:new 0 0 20 20;" xml:space="preserve">
<g>
	<path d="M6.7,7.5h2.8c0.2,0,0.3-0.2,0.3-0.3V7c0-0.2-0.2-0.3-0.3-0.3H6.7C6.5,6.6,6.3,6.8,6.3,7v0.1C6.3,7.3,6.5,7.5,6.7,7.5z"/>
	<path d="M6.7,10.3h5.2c0.2,0,0.3-0.2,0.3-0.3V9.8c0-0.2-0.2-0.3-0.3-0.3H6.7c-0.2,0-0.3,0.2-0.3,0.3v0.1
		C6.3,10.1,6.5,10.3,6.7,10.3z"/>
	<path d="M14.2,12.2H6.6c-0.2,0-0.3,0.2-0.3,0.3v0.1c0,0.2,0.2,0.3,0.3,0.3h7.6c0.2,0,0.3-0.2,0.3-0.3v-0.1
		C14.5,12.3,14.4,12.2,14.2,12.2z"/>
	<path d="M14.8,1.3H5.2c-1.4,0-2.5,1.1-2.5,2.5v12.5c0,1.4,1.1,2.5,2.5,2.5h9.6c1.4,0,2.5-1.1,2.5-2.5V3.7
		C17.3,2.4,16.2,1.3,14.8,1.3z M16.3,16.3c0,0.8-0.7,1.5-1.5,1.5H5.2c-0.8,0-1.5-0.7-1.5-1.5V3.7c0-0.8,0.7-1.5,1.5-1.5h9.6
		c0.8,0,1.5,0.7,1.5,1.5V16.3z"/>
</g>
</svg>
