<?xml version="1.0" encoding="utf-8"?>
<!-- Generator: Adobe Illustrator 18.0.0, SVG Export Plug-In . SVG Version: 6.00 Build 0)  -->
<!DOCTYPE svg PUBLIC "-//W3C//DTD SVG 1.1//EN" "http://www.w3.org/Graphics/SVG/1.1/DTD/svg11.dtd">
<svg version="1.1" id="图层_1" xmlns="http://www.w3.org/2000/svg" xmlns:xlink="http://www.w3.org/1999/xlink" x="0px" y="0px"
	 viewBox="0 0 20 20" enable-background="new 0 0 20 20" xml:space="preserve">
<g>
	<path d="M10,0.8c-5.1,0-9.2,4.1-9.2,9.2c0,5.1,4.1,9.2,9.2,9.2c5.1,0,9.2-4.1,9.2-9.2C19.2,4.9,15.1,0.8,10,0.8z M10,17.8
		c-4.3,0-7.8-3.5-7.8-7.8S5.7,2.2,10,2.2s7.8,3.5,7.8,7.8S14.3,17.8,10,17.8z"/>
	<path d="M10,4.3c-1.9,0-3.4,1.5-3.4,3.4c0,0.4,0.3,0.7,0.7,0.7S8,8.1,8,7.7c0-1.1,0.9-2,2-2c1.1,0,2,0.9,2,2c0,0.7-0.3,1.3-0.9,1.7
		c-0.2,0.1-1.1,0.8-1.4,1.4c-0.3,0.5-0.5,1.1-0.5,1.7c0,0.4,0.3,0.7,0.7,0.7s0.7-0.3,0.7-0.7c0-0.4,0.1-0.7,0.3-1
		c0.1-0.2,0.6-0.6,1-0.9c0.9-0.6,1.5-1.7,1.5-2.8C13.4,5.8,11.9,4.3,10,4.3z"/>
	<circle cx="10" cy="15" r="0.7"/>
</g>
</svg>
