<?xml version="1.0" encoding="utf-8"?>
<!-- Generator: Adobe Illustrator 21.0.0, SVG Export Plug-In . SVG Version: 6.00 Build 0)  -->
<svg version="1.1" id="图层_1" xmlns="http://www.w3.org/2000/svg" xmlns:xlink="http://www.w3.org/1999/xlink" x="0px" y="0px"
	 viewBox="0 0 20 20" style="enable-background:new 0 0 20 20;" xml:space="preserve">
<g>
	<path d="M12.4,15.6H7.6c-0.3,0-0.6,0.1-0.7,0.3s-0.3,0.5-0.2,0.8c0.3,1.6,1.7,2.7,3.3,2.7s3-1.1,3.3-2.7c0.1-0.3,0-0.6-0.2-0.8
		C12.9,15.7,12.6,15.6,12.4,15.6z M10,18.5c-1.1,0-2.1-0.8-2.4-1.9h4.7C12.1,17.7,11.1,18.5,10,18.5z"/>
	<path d="M14.2,2.1c-1.3-1.2-3.2-1.8-5-1.6C6.5,0.9,4.2,3.1,3.8,5.9c-0.3,2.2,0.5,4.4,2.1,5.8c0.5,0.4,0.7,0.9,0.7,1.4
		c0,0.6,0.5,1.1,1.1,1.1h4.7c0.6,0,1.1-0.5,1.1-1.1c0-0.5,0.3-1,0.7-1.4c1.4-1.2,2.2-3,2.2-4.8C16.3,5.1,15.6,3.3,14.2,2.1z
		 M13.5,10.9c-0.7,0.6-1,1.4-1,2.2c0,0,0,0.1-0.1,0.1H7.7c0,0-0.1,0-0.1-0.1c0-0.8-0.4-1.6-1.1-2.2C5.1,9.7,4.4,7.9,4.7,6
		C5.1,3.7,7,1.8,9.4,1.6c0.2,0,0.4,0,0.7,0c1.3,0,2.5,0.5,3.5,1.3c1.1,1,1.8,2.5,1.8,4C15.3,8.4,14.6,9.9,13.5,10.9z"/>
	<path d="M10,2.7C7.8,2.8,6,4.5,5.8,6.7C5.8,7,6,7.2,6.3,7.2c0,0,0,0,0,0c0.3,0,0.5-0.2,0.5-0.5C7,5.1,8.3,3.8,10,3.6
		c0.3,0,0.5-0.3,0.5-0.5S10.2,2.6,10,2.7z"/>
</g>
</svg>
