<?xml version="1.0" encoding="utf-8"?>
<!-- Generator: Adobe Illustrator 21.0.0, SVG Export Plug-In . SVG Version: 6.00 Build 0)  -->
<svg version="1.1" id="图层_1" xmlns="http://www.w3.org/2000/svg" xmlns:xlink="http://www.w3.org/1999/xlink" x="0px" y="0px"
	 viewBox="0 0 104 26" enable-background="new 0 0 104 26" xml:space="preserve">
<g>
	<path fill="#444444" d="M7.168,0.527c-1.931,0-3.74,0.684-5.106,2.05c-1.367,1.367-2.21,3.015-2.21,4.947v11.148
		c0,0.009,0-0.022,0,0c0,0.791,0.389,1.499,1.18,1.499c0.79,0,1.249-0.749,1.249-1.54c0-0.047,0,0.044,0,0v-5.497
		c1.823,0.924,2.948,1.386,4.543,1.386c1.931,0,3.752-0.684,5.118-2.051c1.366-1.366,2.136-3.015,2.136-4.946
		c0-1.932-0.64-3.58-2.006-4.947C10.705,1.211,9.099,0.527,7.168,0.527z M10.135,10.49c-0.821,0.82-1.811,1.232-2.967,1.232
		c-1.157,0-2.146-0.412-2.966-1.232C3.38,9.669,2.97,8.68,2.97,7.524c0-1.156,0.41-2.146,1.231-2.967
		c0.821-0.821,1.81-1.231,2.966-1.231c1.156,0,2.146,0.41,2.967,1.231c0.821,0.821,1.231,1.811,1.231,2.967
		C11.366,8.68,10.955,9.669,10.135,10.49z"/>
	<path fill="#B2CF07" d="M61.572,6.121c-1.931,0-3.579,0.684-4.945,2.05c-1.367,1.367-2.052,3.016-2.052,4.946
		c0,1.932,0.685,3.58,2.052,4.947c1.366,1.365,3.015,2.05,4.945,2.05c1.596,0,2.994-0.462,4.198-1.386
		c0,1.148-0.37,2.132-1.192,2.953c-0.821,0.82-1.439,1.231-2.926,1.231c0,0-0.468,0.036-0.612,0.092
		c-0.171,0.064-0.37,0.17-0.503,0.293c-0.006,0.006-0.023,0.006-0.028,0.011c-0.021,0.022-0.047,0.038-0.066,0.061
		c-0.01,0.008-0.02,0.016-0.028,0.026c-0.017,0.02-0.035,0.039-0.053,0.06c-0.008,0.011-0.018,0.023-0.026,0.035
		c-0.015,0.021-0.031,0.039-0.044,0.061c-0.01,0.016-0.02,0.034-0.031,0.051c-0.018,0.028-0.033,0.057-0.048,0.088
		c-0.012,0.023-0.023,0.046-0.035,0.071c-0.006,0.017-0.014,0.033-0.02,0.048c-0.009,0.023-0.018,0.048-0.024,0.071
		c-0.006,0.017-0.012,0.034-0.016,0.052c-0.008,0.023-0.014,0.049-0.02,0.074c-0.006,0.016-0.01,0.032-0.011,0.049
		c-0.005,0.027-0.009,0.059-0.013,0.087c-0.001,0.014-0.005,0.027-0.007,0.042c-0.004,0.043-0.006,0.088-0.006,0.132
		c0,0.769,0.624,1.396,1.394,1.396c0.011,0,0.02-0.002,0.028-0.002c0.002,0.002,0.004,0.003,0.004,0.003
		c2.021,0,3.28-0.685,4.646-2.052c1.365-1.366,1.749-3.015,1.749-4.945v-5.598c0-1.931-0.34-3.58-1.707-4.946
		C64.811,6.805,63.502,6.121,61.572,6.121z M64.538,16.086c-0.822,0.82-1.81,1.23-2.967,1.23c-1.156,0-2.146-0.409-2.967-1.23
		c-0.821-0.821-1.23-1.81-1.23-2.968c0-1.157,0.409-2.145,1.23-2.966c0.821-0.821,1.811-1.231,2.967-1.231
		c1.157,0,2.144,0.411,2.967,1.231c0.82,0.821,1.231,1.81,1.231,2.966C65.77,14.275,65.359,15.264,64.538,16.086z"/>
	<circle fill="#B2CF07" cx="71.073" cy="2.935" r="1.668"/>
	<path fill="#444444" d="M22.461,17.311c-0.014,0-0.029,0.001-0.044,0.001c-0.98-0.029-2.192-0.437-2.982-1.227
		c-0.82-0.821-1.361-1.81-1.361-2.968V8.855h2.983c0,0,0.015,0,0.015,0l0,0c0.745,0,1.41-0.755,1.41-1.541
		c0-0.773-0.618-1.497-1.387-1.497c-0.001,0,0.001,0,0,0h-3.02V2.659c0-0.07-0.05-1.554-1.453-1.628
		c-0.78-0.042-1.584,0.632-1.584,1.414c0,0.061,0,0.12,0,0.178v10.496c0,1.932,0.945,3.58,2.312,4.947
		c1.164,1.163,2.665,1.829,4.237,2.002c0.069,0.013,0.41,0.056,0.749,0.035c0.023,0.001,0.074,0.003,0.098,0.003
		c0.772,0,1.411-0.626,1.411-1.397C23.845,17.937,23.233,17.311,22.461,17.311z"/>
	<path fill="#B2CF07" d="M72.298,18.768L72.3,7.396c0,0,0-1.151-1.32-1.14c-1.141,0.008-1.197,1.139-1.197,1.139
		s-0.003,11.299,0,11.356c0.058,1.368,1.253,1.412,1.258,1.412C71.847,20.206,72.324,19.435,72.298,18.768z"/>
	<path fill="#B2CF07" d="M36.235,14.322c0.839,0,1.6-0.59,1.691-1.426c0.107-0.977-1.297-6.776-6.885-6.797
		c-1.91-0.007-3.54,0.703-4.907,2.069c-1.366,1.367-2.029,3.025-2.029,4.956c0,1.931,0.693,3.583,2.06,4.952
		c1.366,1.366,3.021,2.052,4.952,2.052c1.789,0,3.623-0.571,5.005-1.687c0-0.001,0.002-0.002,0.002-0.002
		c0.352-0.277,0.578-0.702,0.578-1.183c0-0.833-0.673-1.506-1.505-1.506c-0.417,0-0.792,0.169-1.065,0.441
		c-0.003-0.001-0.006-0.001-0.007-0.001c-0.853,0.73-1.847,1.018-3.002,1.065c-1.938,0.077-3.599-1.112-3.974-2.935H36.235
		C36.235,14.322,36.18,14.322,36.235,14.322z M31.122,9.085c2.22-0.058,3.769,1.593,3.974,2.808h-7.947
		C27.353,10.678,28.865,9.144,31.122,9.085z"/>
	<path fill="#B2CF07" d="M101.169,14.322c0.84,0,1.602-0.59,1.692-1.426c0.107-0.977-1.296-6.776-6.885-6.797
		c-1.91-0.007-3.539,0.703-4.906,2.069c-1.366,1.367-2.03,3.025-2.03,4.956c0,1.931,0.694,3.583,2.061,4.952
		c1.366,1.366,3.021,2.052,4.952,2.052c1.788,0,3.622-0.571,5.005-1.687c0.001-0.001,0.002-0.002,0.004-0.002
		c0.351-0.277,0.576-0.702,0.576-1.183c0-0.833-0.675-1.506-1.506-1.506c-0.416,0-0.792,0.169-1.064,0.441
		c-0.003-0.001-0.007-0.001-0.008-0.001c-0.853,0.73-1.847,1.018-3.002,1.065c-1.937,0.077-3.6-1.112-3.974-2.935H101.169
		C101.169,14.322,101.116,14.322,101.169,14.322z M96.058,9.085c2.22-0.058,3.769,1.593,3.975,2.808h-7.948
		C92.289,10.678,93.8,9.144,96.058,9.085z"/>
	<path fill="#B2CF07" d="M87.555,18.243v-5.125c0-1.931-0.599-3.58-1.964-4.946c-1.368-1.367-2.931-2.05-4.863-2.05
		c-1.93,0-3.556,0.684-4.921,2.05c-1.366,1.367-2.026,3.016-2.026,4.946v5.198v0.283c0,0.002-0.009,0.002-0.006,0.002
		c0.001,0.008,0.006,0.013,0.007,0.022c0.014,0.277,0.286,1.413,1.438,1.413c1.184,0,1.538-0.906,1.538-1.38
		c0-0.047,0-0.082,0-0.109c0-0.006,0.002-0.01,0.002-0.016c0-0.026-0.002-0.051-0.002-0.078v-5.335c0-1.157,0.341-2.145,1.161-2.966
		c0.82-0.821,1.774-1.231,2.931-1.231c1.157,0,2.096,0.411,2.917,1.231c0.82,0.821,1.182,1.81,1.182,2.966l-0.003,5.1
		c0,0-0.008,1.705,1.307,1.726C87.556,19.964,87.555,18.243,87.555,18.243z"/>
	<path fill="#B2CF07" d="M52.854,18.243v-5.125c0-1.931-0.598-3.58-1.964-4.946c-1.367-1.367-2.931-2.05-4.862-2.05
		c-1.931,0-3.557,0.684-4.923,2.05c-1.367,1.367-2.026,3.016-2.026,4.946v5.198v0.283c0,0.002-0.008,0.002-0.006,0.002
		c0,0.008,0.006,0.013,0.007,0.022c0.013,0.277,0.286,1.413,1.439,1.413c1.182,0,1.537-0.906,1.537-1.38c0-0.047,0-0.082,0-0.109
		c0-0.006,0.002-0.01,0.002-0.016c0-0.026-0.002-0.051-0.002-0.078v-5.335c0-1.157,0.34-2.145,1.161-2.966
		c0.821-0.821,1.774-1.231,2.931-1.231c1.157,0,2.096,0.411,2.917,1.231c0.821,0.821,1.182,1.81,1.182,2.966l-0.003,5.1
		c0,0-0.007,1.705,1.307,1.726C52.855,19.964,52.854,18.243,52.854,18.243z"/>
</g>
</svg>
