<?xml version="1.0" encoding="utf-8"?>
<!-- Generator: Adobe Illustrator 18.0.0, SVG Export Plug-In . SVG Version: 6.00 Build 0)  -->
<!DOCTYPE svg PUBLIC "-//W3C//DTD SVG 1.1//EN" "http://www.w3.org/Graphics/SVG/1.1/DTD/svg11.dtd">
<svg version="1.1" id="图层_1" xmlns="http://www.w3.org/2000/svg" xmlns:xlink="http://www.w3.org/1999/xlink" x="0px" y="0px"
	 viewBox="0 0 20 20" enable-background="new 0 0 20 20" xml:space="preserve">
<path d="M15.4,7.4c1.5,0,2.8-1.3,2.8-2.8s-1.3-2.8-2.8-2.8c-1.5,0-2.8,1.3-2.8,2.8c0,0.3,0.1,0.6,0.1,0.8L7.3,8.6
	C6.7,8,5.9,7.5,5,7.5c-1.7,0-3.2,1.4-3.2,3.2c0,1.7,1.4,3.2,3.2,3.2c1,0,1.9-0.5,2.4-1.2l3.8,2c-0.1,0.2-0.1,0.4-0.1,0.7
	c0,1.5,1.3,2.8,2.8,2.8s2.8-1.3,2.8-2.8s-1.3-2.8-2.8-2.8c-0.8,0-1.6,0.4-2.1,1l-3.8-2c0.1-0.3,0.1-0.6,0.1-0.8c0-0.4-0.1-0.7-0.2-1
	l5.4-3.2C13.9,7.1,14.6,7.4,15.4,7.4z M14,13.9c0.8,0,1.5,0.7,1.5,1.5s-0.7,1.5-1.5,1.5s-1.5-0.7-1.5-1.5c0-0.2,0.1-0.5,0.2-0.7
	c0,0,0,0,0,0c0,0,0,0,0,0C12.9,14.2,13.4,13.9,14,13.9z M5,12.6c-1,0-1.9-0.8-1.9-1.9c0-1,0.8-1.9,1.9-1.9s1.9,0.8,1.9,1.9
	C6.8,11.8,6,12.6,5,12.6z M15.4,3.1c0.8,0,1.5,0.7,1.5,1.5s-0.7,1.5-1.5,1.5c-0.8,0-1.5-0.7-1.5-1.5S14.6,3.1,15.4,3.1z"/>
</svg>
