<?xml version="1.0" encoding="utf-8"?>
<!-- Generator: Adobe Illustrator 18.0.0, SVG Export Plug-In . SVG Version: 6.00 Build 0)  -->
<!DOCTYPE svg PUBLIC "-//W3C//DTD SVG 1.1//EN" "http://www.w3.org/Graphics/SVG/1.1/DTD/svg11.dtd">
<svg version="1.1" id="图层_1" xmlns="http://www.w3.org/2000/svg" xmlns:xlink="http://www.w3.org/1999/xlink" x="0px" y="0px"
	 viewBox="0 0 12 12" enable-background="new 0 0 12 12" xml:space="preserve">
<g>
	<path d="M11,10.3H3c-0.7,0-1.3-0.6-1.3-1.3V1c0-0.4-0.3-0.7-0.7-0.7S0.3,0.6,0.3,1v8c0,1.5,1.2,2.7,2.7,2.7h8
		c0.4,0,0.7-0.3,0.7-0.7S11.4,10.3,11,10.3z"/>
	<path d="M4.3,8.4c0.2,0,0.4-0.1,0.5-0.2l3.8-3.8L10.3,6c0.1,0.1,0.3,0.2,0.5,0.2c0.4,0,0.7-0.3,0.7-0.7V1.2c0-0.4-0.3-0.7-0.7-0.7
		H6.5c-0.3,0-0.5,0.2-0.6,0.4C5.7,1.2,5.8,1.5,6,1.7l1.7,1.7L3.8,7.2c-0.3,0.3-0.3,0.7,0,1C4,8.3,4.1,8.4,4.3,8.4z"/>
</g>
</svg>
