<?xml version="1.0" encoding="utf-8"?>
<!-- Generator: Adobe Illustrator 18.0.0, SVG Export Plug-In . SVG Version: 6.00 Build 0)  -->
<!DOCTYPE svg PUBLIC "-//W3C//DTD SVG 1.1//EN" "http://www.w3.org/Graphics/SVG/1.1/DTD/svg11.dtd">
<svg version="1.1" id="图层_1" xmlns="http://www.w3.org/2000/svg" xmlns:xlink="http://www.w3.org/1999/xlink" x="0px" y="0px"
	 viewBox="0 0 24 24" enable-background="new 0 0 24 24" xml:space="preserve">
<path d="M10.7,2.8c0-0.9-0.2-2.2,1.1-2.3c1.4-0.1,1.3,1.1,1.4,2.1c0.1,1.8,0.2,3.7,0.4,5.5c0.1,0.6,0,0.9,0.3,1.1
	c0.4,0.2,0.3-0.8,0.3-1.2c0-1.5,0-3.1,0-4.6c0-0.8,0.4-1.3,1.2-1.3c0.9,0,1.2,0.6,1.2,1.3c0.1,2.1-0.1,4.3,0.1,6.4
	c0.1,0.8,0.3,0.8,0.4,0.8c0.3,0,0.3-0.4,0.4-0.8c0.2-1.1,0.2-2.3,0.4-3.5c0.1-0.8,0.6-1.5,1.6-1.3c0.8,0.2,1.1,0.8,1,1.5
	c-0.8,3.9-0.2,7.9-0.7,11.9c-0.3,3-2.6,4.4-5.4,5c-2.8,0.6-5.8-0.8-7.2-3.3c-1.1-2-2.2-4.1-3.3-6.1c-0.3-0.6-0.9-1.2-0.3-1.8
	c0.7-0.7,1.4-0.2,2,0.3c0.8,0.7,1.4,2.2,2.5,1.4c0.8-0.6,0-2-0.2-3C7.5,8.6,7,6.4,6.6,4.1c-0.2-0.8-0.3-1.9,1-2
	c1-0.1,1.3,0.7,1.5,1.5c0.4,1.8,0.8,3.6,1.2,5.4c0.2,0.8,0.3,1.8,0.8,1.8c0.4,0,0.2-0.8,0.2-1.7L10.7,2.8z"/>
</svg>
