<?xml version="1.0" encoding="utf-8"?>
<!-- Generator: Adobe Illustrator 16.0.0, SVG Export Plug-In . SVG Version: 6.00 Build 0)  -->
<!DOCTYPE svg PUBLIC "-//W3C//DTD SVG 1.1//EN" "http://www.w3.org/Graphics/SVG/1.1/DTD/svg11.dtd">
<svg version="1.1" id="图层_1" xmlns="http://www.w3.org/2000/svg" xmlns:xlink="http://www.w3.org/1999/xlink" x="0px" y="0px"
	 width="230px" height="78px" viewBox="0 0 230 78" enable-background="new 0 0 230 78" xml:space="preserve">
<g>
	<path fill="none" stroke="#4B8AC9" stroke-miterlimit="10" d="M94.608,26C87.909,35.182,90.905,42.345,99,45.75"/>
	<g>
		<path fill="#6387FC" d="M102.815,21.643c1.655,8.508-3.128,16.592-10.679,18.058c-7.552,1.466-15.01-4.242-16.662-12.75
			c-1.65-8.507,3.132-16.592,10.681-18.058C93.706,7.428,101.165,13.136,102.815,21.643z"/>
		<path fill="#FFFFFF" d="M87.44,19.996c0-2.118,3.411-2.195,3.411,0v8.592c0,2.145-3.411,2.196-3.411,0V19.996z"/>
		<circle fill="#FFFFFF" cx="89.147" cy="14.096" r="1.876"/>
		<animateMotion xmlns="http://www.w3.org/2000/svg" path="M0,0 5,-8 0,0" begin="0s" dur="3s" repeatCount="indefinite"/>
	</g>
	<path fill="none" stroke="#4B8AC9" stroke-miterlimit="10" d="M70.2,31.685c6.05,12.565,20.651,10.5,26.563,18"/>
	<polygon fill="#B39DDB" points="217.479,60.174 226.861,63.374 220.68,66.382 	"/>
	<polygon fill="#DDFF17" points="6.386,19.708 14.841,33.87 14.358,37.685 4,30.764 	"/>
	<g fill="#DDFF17">
		<polygon points="230,45.685 218,46.685 227,37.685 	"/>
		<animate attributeName="fill" from="#DDFF17" to="#72AF43" begin="1s" dur="0.5s" repeatCount="indefinite" />
	</g>
	<g fill="#6387FC">
		<polygon points="8,64.342 5.166,68.685 1,66.685 7.306,61.449 	"/>
		<animate attributeName="fill" from="#6387FC" to="#DDFF17" begin="0.5s" dur="0.5s" repeatCount="indefinite" />
	</g>
	<polygon fill="#908CE0" points="206.907,22.332 194.959,30.297 189.98,29.301 196.951,20.34 	"/>
	<polygon fill="#83D3FF" points="0,52.685 3,46.685 10,50.685 	"/>
	<g fill="#DDFF17">
		<polygon points="121.538,69.13 123.766,70.681 121.309,71.833 118.854,72.987 119.083,70.283 119.313,67.579 	"/>
		<animate attributeName="fill" from="#DDFF17" to="#f96923" begin="0s" dur="0.5s" repeatCount="indefinite" />
	</g>
	<g>
		<path fill="#FCAB75" d="M110.44,27.286c2.378-1.86,2.353-5.58-1.136-5.58c-1.111,0-2.272,0.671-2.946,1.729
			c-1.031,1.628-3.745,0.543-2.714-1.783c1.164-2.272,3.413-3.177,5.66-3.177c6.121,0,8.551,6.303,3.643,11.083
			c-1.886,1.602-3.177,2.532-5.013,3.616c1.138,0,2.506-0.154,3.643-0.154h2.998c1.987,0,2.246,3.333,0,3.333H104.55
			c-1.603,0-2.246-1.55-1.137-2.712C105.738,31.161,107.935,29.559,110.44,27.286z"/>
		<path fill="#FCAB75" d="M125.011,36.638c-10.643,0-10.488-18.704-0.025-18.704C134.855,17.934,134.982,36.638,125.011,36.638z
			 M124.985,33.252c5.452,0,5.374-11.831,0.025-11.831C119.045,21.421,118.967,33.252,124.985,33.252z"/>
		<path fill="#FCAB75" d="M136.791,22.584l-1.549,0.62c-2.067,0.672-3.307-2.376-0.956-3.152l3.645-1.343
			c1.187-0.517,2.273-0.025,2.273,1.809v14.467c0,1.912-3.413,1.963-3.413,0V22.584z"/>
		<path fill="#FCAB75" d="M149.685,21.602h-6.899c-2.299,0-2.246-3.126,0-3.126h9.301c1.629,0,2.273,1.396,1.629,2.531
			l-7.699,14.494c-0.88,1.885-4.133,0.645-2.996-1.37L149.685,21.602z"/>
	</g>
	<g>
		
			<ellipse transform="matrix(0.8868 -0.4622 0.4622 0.8868 -3.9275 34.6016)" fill="#FC862B" cx="68.667" cy="25.318" rx="15.86" ry="17.869"/>
		<path fill="#FFFFFF" d="M62.254,32.752l-4.646-13.918c-0.295-0.883,0.129-1.731,1.231-2.1c0.86-0.287,1.707,0.138,2.003,1.019
			l1.784,5.343l7.987-2.667l-1.783-5.342c-0.295-0.883,0.277-1.782,1.16-2.077c0.856-0.286,1.73,0.13,2.024,1.012l4.65,13.918
			c0.284,0.858-0.155,1.742-1.013,2.027c-0.882,0.295-1.887-0.105-2.174-0.962l-1.794-5.368l-7.987,2.668l1.793,5.367
			c0.285,0.856-0.131,1.732-0.989,2.018C63.398,34.058,62.54,33.609,62.254,32.752z"/>
			<animateMotion xmlns="http://www.w3.org/2000/svg" path="M0,0 -8,-5 0,0" begin="0.8s" dur="3s" repeatCount="indefinite"/>
	</g>
	<g fill="#6A9BE2">
		<polygon points="43.058,23.991 33.531,18.279 37.801,13.04 	"/>
		<animate attributeName="fill" from="#6A9BE2" to="#99CCFF" begin="0.5s" dur="0.5s" repeatCount="indefinite" />
	</g>
	<g fill="#FC862B">
		<polygon points="170.908,13.409 168.926,21.418 162.98,15.696 	"/>
		<animate attributeName="fill" from="#FC862B" to="#ffeb3b" begin="0.8s" dur="0.5s" repeatCount="indefinite" />
	</g>
	<polygon fill="#83D3FF" points="179.579,18.837 181.577,20.262 178.365,22.656 175.152,25.049 176.365,21.231 177.579,17.414 	"/>
	<g>
		<path fill="#AFD100" d="M154.345,40.001c-1.501,0-2.713,1.214-2.713,2.713v21.715c0,1.498,1.212,2.713,2.713,2.713
			c1.498,0,2.717-1.215,2.717-2.713V42.714C157.062,41.215,155.843,40.001,154.345,40.001z"/>
		<path fill="#AFD100" d="M59.342,61.714c-4.488,0-8.139-3.654-8.139-8.144v-8.143h5.369c1.5,0,2.714-1.215,2.714-2.714
			c0-1.499-1.214-2.713-2.714-2.713h-5.369v-8.145c0-1.499-1.218-2.714-2.718-2.714c-1.499,0-2.715,1.215-2.715,2.714v10.307
			c-0.037,0.178-0.054,0.361-0.054,0.551c0,0.187,0.017,0.372,0.054,0.549v10.308c0,7.483,6.089,13.572,13.571,13.572
			c1.5,0,2.714-1.215,2.714-2.713C62.056,62.929,60.842,61.714,59.342,61.714z"/>
		<path fill="#AFD100" d="M76.984,40.001c-7.484,0-13.571,6.086-13.571,13.57S69.5,67.143,76.984,67.143
			c2.449,0,7.012-0.456,10.062-3.508c1.063-1.061,1.063-2.78,0-3.84c-1.056-1.059-2.776-1.059-3.833,0
			c-1.221,1.219-3.492,1.92-6.229,1.92c-3.534,0-6.556-2.27-7.674-5.429h18.554c1.497,0,2.712-1.216,2.712-2.715
			c0-0.127-0.012-0.251-0.03-0.373C90.349,45.887,84.345,40.001,76.984,40.001z M76.984,45.428c3.54,0,6.557,2.271,7.68,5.429
			H69.311C70.429,47.698,73.45,45.428,76.984,45.428z"/>
		<path fill="#AFD100" d="M212.705,56.286c1.496,0,2.715-1.216,2.715-2.715c0-0.127-0.016-0.251-0.03-0.373
			c-0.199-7.312-6.204-13.197-13.565-13.197c-7.48,0-13.565,6.086-13.565,13.57s6.085,13.572,13.565,13.572
			c2.457,0,7.027-0.456,10.082-3.508c1.064-1.061,1.064-2.78,0-3.84c-1.059-1.059-2.775-1.059-3.836,0
			c-1.205,1.203-3.536,1.92-6.246,1.92c-3.539,0-6.552-2.27-7.675-5.429H212.705z M201.824,45.428c3.542,0,6.556,2.271,7.681,5.429
			h-15.355C195.272,47.698,198.285,45.428,201.824,45.428z"/>
		<path fill="#AFD100" d="M173.347,40.001c-6.737,0-12.215,5.477-12.215,12.214v12.214c0,1.498,1.217,2.713,2.71,2.713
			c1.505,0,2.715-1.215,2.715-2.713V52.215c0-3.743,3.047-6.787,6.79-6.787c3.741,0,6.784,3.044,6.784,6.787v12.214
			c0,1.498,1.214,2.713,2.717,2.713c1.499,0,2.712-1.215,2.712-2.713V52.215C185.56,45.478,180.079,40.001,173.347,40.001z"/>
		<path fill="#AFD100" d="M105.487,40.001c-6.737,0-12.217,5.477-12.217,12.214v12.214c0,1.498,1.218,2.713,2.718,2.713
			c1.497,0,2.712-1.215,2.712-2.713V52.215c0-3.743,3.049-6.787,6.787-6.787c3.742,0,6.785,3.044,6.785,6.787v12.214
			c0,1.498,1.214,2.713,2.718,2.713c1.496,0,2.709-1.215,2.709-2.713V52.215C117.699,45.478,112.22,40.001,105.487,40.001z"/>
		<path fill="#AFD100" d="M133.984,40.001c-7.481,0-13.569,6.086-13.569,13.57s6.088,13.572,13.569,13.572
			c3.056,0,5.876-1.014,8.146-2.722v0.008c0,4.489-3.658,8.142-8.146,8.142c-1.494,0-2.709,1.215-2.709,2.714
			c0,1.5,1.215,2.715,2.709,2.715c7.273,0,13.229-5.75,13.559-12.942c0.008-0.095,0.017-0.192,0.017-0.29v-9.5
			c0-0.184-0.017-0.362-0.054-0.535c0.032-0.384,0.054-0.771,0.054-1.163C147.56,46.087,141.471,40.001,133.984,40.001z
			 M133.984,61.714c-4.486,0-8.143-3.654-8.143-8.144c0-4.49,3.656-8.143,8.143-8.143c4.488,0,8.146,3.653,8.146,8.143
			C142.131,58.06,138.473,61.714,133.984,61.714z"/>
		<path fill="#AFD100" d="M29.484,29.143c-7.485,0-13.572,6.087-13.572,13.571v21.715c0,1.498,1.217,2.713,2.717,2.713
			c1.498,0,2.713-1.215,2.713-2.713V53.564c2.271,1.708,5.092,2.722,8.143,2.722c7.482,0,13.573-6.089,13.573-13.572
			C43.058,35.23,36.967,29.143,29.484,29.143z M29.484,50.857c-4.488,0-8.143-3.653-8.143-8.143c0-4.489,3.654-8.143,8.143-8.143
			c4.487,0,8.145,3.654,8.145,8.143C37.629,47.204,33.972,50.857,29.484,50.857z"/>
		<circle fill="#AFD100" cx="154.343" cy="32.535" r="3.393"/>
	</g>
</g>
</svg>
