<?xml version="1.0" encoding="utf-8"?>
<!-- Generator: Adobe Illustrator 18.0.0, SVG Export Plug-In . SVG Version: 6.00 Build 0)  -->
<!DOCTYPE svg PUBLIC "-//W3C//DTD SVG 1.1//EN" "http://www.w3.org/Graphics/SVG/1.1/DTD/svg11.dtd">
<svg version="1.1" id="图层_1" xmlns="http://www.w3.org/2000/svg" xmlns:xlink="http://www.w3.org/1999/xlink" x="0px" y="0px"
	 viewBox="0 0 104 26" enable-background="new 0 0 104 26" xml:space="preserve">
<g>
	<path fill="#FFFFFF" d="M7.8,0.4c-1.9,0-3.7,0.7-5.1,2c-1.4,1.4-2.2,3-2.2,4.9v11.1c0,0,0,0,0,0c0,0.8,0.4,1.5,1.2,1.5
		c0.8,0,1.2-0.7,1.2-1.5c0,0,0,0,0,0V13c1.8,0.9,2.9,1.4,4.5,1.4c1.9,0,3.8-0.7,5.1-2.1c1.4-1.4,2.1-3,2.1-4.9c0-1.9-0.6-3.6-2-4.9
		C11.3,1.1,9.7,0.4,7.8,0.4z M10.8,10.4c-0.8,0.8-1.8,1.2-3,1.2c-1.2,0-2.1-0.4-3-1.2C4,9.5,3.6,8.6,3.6,7.4c0-1.2,0.4-2.1,1.2-3
		c0.8-0.8,1.8-1.2,3-1.2c1.2,0,2.1,0.4,3,1.2c0.8,0.8,1.2,1.8,1.2,3C12,8.6,11.6,9.5,10.8,10.4z"/>
	<path fill="#B2CF07" d="M62.2,6c-1.9,0-3.6,0.7-4.9,2.1c-1.4,1.4-2.1,3-2.1,4.9c0,1.9,0.7,3.6,2.1,4.9c1.4,1.4,3,2,4.9,2
		c1.6,0,3-0.5,4.2-1.4c0,1.1-0.4,2.1-1.2,3c-0.8,0.8-1.4,1.2-2.9,1.2c0,0-0.5,0-0.6,0.1c-0.2,0.1-0.4,0.2-0.5,0.3c0,0,0,0,0,0
		c0,0,0,0-0.1,0.1c0,0,0,0,0,0c0,0,0,0-0.1,0.1c0,0,0,0,0,0c0,0,0,0,0,0.1c0,0,0,0,0,0.1c0,0,0,0.1,0,0.1c0,0,0,0,0,0.1c0,0,0,0,0,0
		c0,0,0,0,0,0.1c0,0,0,0,0,0.1c0,0,0,0,0,0.1c0,0,0,0,0,0c0,0,0,0.1,0,0.1c0,0,0,0,0,0c0,0,0,0.1,0,0.1c0,0.8,0.6,1.4,1.4,1.4
		c0,0,0,0,0,0c0,0,0,0,0,0c2,0,3.3-0.7,4.6-2.1c1.4-1.4,1.7-3,1.7-4.9V13c0-1.9-0.3-3.6-1.7-4.9C65.5,6.7,64.1,6,62.2,6z M65.2,16
		c-0.8,0.8-1.8,1.2-3,1.2c-1.2,0-2.1-0.4-3-1.2c-0.8-0.8-1.2-1.8-1.2-3c0-1.2,0.4-2.1,1.2-3c0.8-0.8,1.8-1.2,3-1.2
		c1.2,0,2.1,0.4,3,1.2c0.8,0.8,1.2,1.8,1.2,3C66.4,14.2,66,15.1,65.2,16z"/>
	<circle fill="#B2CF07" cx="71.7" cy="2.8" r="1.7"/>
	<path fill="#FFFFFF" d="M23.1,17.2C23.1,17.2,23.1,17.2,23.1,17.2c-1,0-2.2-0.4-3-1.2c-0.8-0.8-1.4-1.8-1.4-3V8.7h3c0,0,0,0,0,0
		l0,0c0.7,0,1.4-0.8,1.4-1.5c0-0.8-0.6-1.5-1.4-1.5c0,0,0,0,0,0h-3V2.5c0-0.1,0-1.6-1.5-1.6c-0.8,0-1.6,0.6-1.6,1.4
		c0,0.1,0,0.1,0,0.2V13c0,1.9,0.9,3.6,2.3,4.9c1.2,1.2,2.7,1.8,4.2,2c0.1,0,0.4,0.1,0.7,0c0,0,0.1,0,0.1,0c0.8,0,1.4-0.6,1.4-1.4
		C24.5,17.8,23.9,17.2,23.1,17.2z"/>
	<path fill="#B2CF07" d="M72.9,18.6l0-11.4c0,0,0-1.2-1.3-1.1c-1.1,0-1.2,1.1-1.2,1.1s0,11.3,0,11.4c0.1,1.4,1.3,1.4,1.3,1.4
		C72.5,20.1,73,19.3,72.9,18.6z"/>
	<path fill="#B2CF07" d="M36.9,14.2c0.8,0,1.6-0.6,1.7-1.4c0.1-1-1.3-6.8-6.9-6.8c-1.9,0-3.5,0.7-4.9,2.1c-1.4,1.4-2,3-2,5
		c0,1.9,0.7,3.6,2.1,5c1.4,1.4,3,2.1,5,2.1c1.8,0,3.6-0.6,5-1.7c0,0,0,0,0,0c0.4-0.3,0.6-0.7,0.6-1.2c0-0.8-0.7-1.5-1.5-1.5
		c-0.4,0-0.8,0.2-1.1,0.4c0,0,0,0,0,0c-0.9,0.7-1.8,1-3,1.1c-1.9,0.1-3.6-1.1-4-2.9H36.9C36.9,14.2,36.8,14.2,36.9,14.2z M31.8,9
		c2.2-0.1,3.8,1.6,4,2.8h-7.9C28,10.6,29.5,9,31.8,9z"/>
	<path fill="#B2CF07" d="M101.8,14.2c0.8,0,1.6-0.6,1.7-1.4c0.1-1-1.3-6.8-6.9-6.8c-1.9,0-3.5,0.7-4.9,2.1c-1.4,1.4-2,3-2,5
		c0,1.9,0.7,3.6,2.1,5c1.4,1.4,3,2.1,5,2.1c1.8,0,3.6-0.6,5-1.7c0,0,0,0,0,0c0.4-0.3,0.6-0.7,0.6-1.2c0-0.8-0.7-1.5-1.5-1.5
		c-0.4,0-0.8,0.2-1.1,0.4c0,0,0,0,0,0c-0.9,0.7-1.8,1-3,1.1c-1.9,0.1-3.6-1.1-4-2.9H101.8C101.8,14.2,101.8,14.2,101.8,14.2z
		 M96.7,9c2.2-0.1,3.8,1.6,4,2.8h-7.9C92.9,10.6,94.4,9,96.7,9z"/>
	<path fill="#B2CF07" d="M88.2,18.1V13c0-1.9-0.6-3.6-2-4.9C84.9,6.7,83.3,6,81.4,6c-1.9,0-3.6,0.7-4.9,2.1c-1.4,1.4-2,3-2,4.9v5.2
		v0.3c0,0,0,0,0,0c0,0,0,0,0,0c0,0.3,0.3,1.4,1.4,1.4c1.2,0,1.5-0.9,1.5-1.4c0,0,0-0.1,0-0.1c0,0,0,0,0,0c0,0,0-0.1,0-0.1V13
		c0-1.2,0.3-2.1,1.2-3c0.8-0.8,1.8-1.2,2.9-1.2c1.2,0,2.1,0.4,2.9,1.2c0.8,0.8,1.2,1.8,1.2,3l0,5.1c0,0,0,1.7,1.3,1.7
		C88.2,19.8,88.2,18.1,88.2,18.1z"/>
	<path fill="#B2CF07" d="M53.5,18.1V13c0-1.9-0.6-3.6-2-4.9C50.2,6.7,48.6,6,46.7,6c-1.9,0-3.6,0.7-4.9,2.1c-1.4,1.4-2,3-2,4.9v5.2
		v0.3c0,0,0,0,0,0c0,0,0,0,0,0c0,0.3,0.3,1.4,1.4,1.4c1.2,0,1.5-0.9,1.5-1.4c0,0,0-0.1,0-0.1c0,0,0,0,0,0c0,0,0-0.1,0-0.1V13
		c0-1.2,0.3-2.1,1.2-3c0.8-0.8,1.8-1.2,2.9-1.2c1.2,0,2.1,0.4,2.9,1.2c0.8,0.8,1.2,1.8,1.2,3l0,5.1c0,0,0,1.7,1.3,1.7
		C53.5,19.8,53.5,18.1,53.5,18.1z"/>
</g>
</svg>
