<?xml version="1.0" encoding="utf-8"?>
<!-- Generator: Adobe Illustrator 18.0.0, SVG Export Plug-In . SVG Version: 6.00 Build 0)  -->
<!DOCTYPE svg PUBLIC "-//W3C//DTD SVG 1.1//EN" "http://www.w3.org/Graphics/SVG/1.1/DTD/svg11.dtd">
<svg version="1.1" id="图层_1" xmlns="http://www.w3.org/2000/svg" xmlns:xlink="http://www.w3.org/1999/xlink" x="0px" y="0px"
	 viewBox="0 0 20 20" enable-background="new 0 0 20 20" xml:space="preserve">
<g>
	<path d="M3.1,8.5l5.6,2.9c0.4,0.2,0.9,0.3,1.3,0.3s0.9-0.1,1.3-0.3l5.6-2.9c0.6-0.3,1-1,1-1.7c0-0.7-0.4-1.4-1-1.7l-5.6-2.9
		c-0.8-0.4-1.8-0.4-2.6,0L3.1,5.1c-0.6,0.3-1,1-1,1.7S2.5,8.2,3.1,8.5z M3.7,6.3l5.6-2.9C9.5,3.3,9.8,3.2,10,3.2
		c0.2,0,0.5,0.1,0.7,0.2l5.6,2.9c0.3,0.2,0.3,0.4,0.3,0.6c0,0.1,0,0.4-0.3,0.6l-5.6,2.9c-0.4,0.2-1,0.2-1.4,0L3.7,7.4
		C3.4,7.2,3.4,7,3.4,6.8C3.4,6.7,3.4,6.4,3.7,6.3z"/>
	<path d="M16.9,10.3l-6.1,3.2c-0.5,0.3-1.1,0.3-1.6,0l-6.1-3.2c-0.3-0.2-0.7,0-0.9,0.3c-0.2,0.3,0,0.7,0.3,0.9l6.1,3.2
		C9,14.9,9.5,15,10,15s1-0.1,1.4-0.3l6.1-3.2c0.3-0.2,0.4-0.6,0.3-0.9C17.6,10.3,17.2,10.1,16.9,10.3z"/>
	<path d="M16.9,13.4l-6.1,3.2c-0.5,0.3-1.1,0.3-1.6,0l-6.1-3.2c-0.3-0.2-0.7,0-0.9,0.3c-0.2,0.3,0,0.7,0.3,0.9l6.1,3.2
		C9,18,9.5,18.1,10,18.1s1-0.1,1.4-0.3l6.1-3.2c0.3-0.2,0.4-0.6,0.3-0.9C17.6,13.4,17.2,13.2,16.9,13.4z"/>
</g>
</svg>
