<?xml version="1.0" encoding="utf-8"?>
<!-- Generator: Adobe Illustrator 18.0.0, SVG Export Plug-In . SVG Version: 6.00 Build 0)  -->
<!DOCTYPE svg PUBLIC "-//W3C//DTD SVG 1.1//EN" "http://www.w3.org/Graphics/SVG/1.1/DTD/svg11.dtd">
<svg version="1.1" id="图层_1" xmlns="http://www.w3.org/2000/svg" xmlns:xlink="http://www.w3.org/1999/xlink" x="0px" y="0px"
	 viewBox="0 0 20 20" enable-background="new 0 0 20 20" xml:space="preserve">
<g>
	<path d="M10,16.2c-3.5,0-6.8-1.9-8.5-4.9C1,10.5,1,9.5,1.5,8.7c1.8-3,5-4.9,8.5-4.9c3.5,0,6.8,1.9,8.5,4.9c0.5,0.8,0.5,1.8,0,2.6
		C16.8,14.3,13.5,16.2,10,16.2z M10,5.1c-3,0-5.9,1.6-7.4,4.3c-0.2,0.4-0.2,0.9,0,1.3c1.5,2.6,4.4,4.3,7.4,4.3c3,0,5.9-1.6,7.4-4.3
		c0.2-0.4,0.2-0.9,0-1.3C15.9,6.7,13,5.1,10,5.1z"/>
	<circle cx="10" cy="10" r="2.4"/>
</g>
</svg>
