<?xml version="1.0" encoding="utf-8"?>
<!-- Generator: Adobe Illustrator 18.0.0, SVG Export Plug-In . SVG Version: 6.00 Build 0)  -->
<!DOCTYPE svg PUBLIC "-//W3C//DTD SVG 1.1//EN" "http://www.w3.org/Graphics/SVG/1.1/DTD/svg11.dtd">
<svg version="1.1" id="图层_1" xmlns="http://www.w3.org/2000/svg" xmlns:xlink="http://www.w3.org/1999/xlink" x="0px" y="0px"
	 viewBox="0 0 20 20" enable-background="new 0 0 20 20" xml:space="preserve">
<g>
	<path d="M10,6.6c-1.9,0-3.4,1.5-3.4,3.4s1.5,3.4,3.4,3.4s3.4-1.5,3.4-3.4S11.9,6.6,10,6.6z M10,12c-1.1,0-2-0.9-2-2
		c0-1.1,0.9-2,2-2c1.1,0,2,0.9,2,2C12,11.1,11.1,12,10,12z"/>
	<path d="M17.6,10.7l-0.2-0.1c0-0.2,0-0.4,0-0.6s0-0.4,0-0.6l0.2-0.1c0.6-0.4,1.1-0.9,1.3-1.6s0.1-1.4-0.3-2l-0.5-0.8
		c-0.5-0.8-1.4-1.4-2.3-1.4c-0.5,0-0.9,0.1-1.3,0.4l-0.2,0.1c-0.3-0.2-0.7-0.4-1-0.6V3.1c0-1.5-1.2-2.7-2.7-2.7h-1
		C8,0.4,6.8,1.6,6.8,3.1v0.2c-0.4,0.2-0.7,0.4-1,0.6L5.6,3.8c-1.2-0.7-3-0.3-3.7,1L1.4,5.6c-0.7,1.3-0.3,2.9,1,3.7l0.2,0.1
		c0,0.2,0,0.4,0,0.6s0,0.4,0,0.6l-0.2,0.1c-0.6,0.4-1.1,0.9-1.3,1.6c-0.2,0.7-0.1,1.4,0.3,2l0.5,0.8c0.5,0.8,1.4,1.4,2.3,1.4
		c0.5,0,0.9-0.1,1.3-0.4l0.2-0.1c0.3,0.2,0.7,0.4,1,0.6v0.2c0,1.5,1.2,2.7,2.7,2.7h1c1.5,0,2.7-1.2,2.7-2.7v-0.2
		c0.3-0.2,0.7-0.4,1-0.6l0.2,0.1c0.4,0.2,0.9,0.4,1.3,0.4c1,0,1.9-0.5,2.3-1.3l0.5-0.8c0.4-0.6,0.5-1.4,0.3-2S18.2,11.1,17.6,10.7z
		 M17.3,13.7l-0.5,0.8c-0.3,0.6-1.2,0.8-1.8,0.5l-1-0.6l-0.4,0.3c-0.5,0.4-1,0.6-1.5,0.9l-0.4,0.2v1.2c0,0.7-0.6,1.3-1.3,1.3h-1
		c-0.7,0-1.3-0.6-1.3-1.3v-1.2l-0.4-0.2c-0.5-0.2-1-0.5-1.5-0.9l-0.4-0.3l-1,0.6c-0.6,0.3-1.4,0.1-1.8-0.5l-0.5-0.8
		c-0.2-0.3-0.2-0.7-0.1-1c0.1-0.3,0.3-0.6,0.6-0.8l1-0.6l-0.1-0.5C4,10.5,4,10.3,4,10s0-0.5,0.1-0.9l0.1-0.5l-1-0.6
		C2.5,7.7,2.3,6.9,2.7,6.3l0.5-0.8C3.5,4.9,4.3,4.7,4.9,5l1,0.6l0.4-0.3c0.5-0.4,1-0.6,1.5-0.9l0.4-0.2V3.1c0-0.7,0.6-1.3,1.3-1.3h1
		c0.7,0,1.3,0.6,1.3,1.3v1.2l0.4,0.2c0.5,0.2,1,0.5,1.5,0.9l0.4,0.3l1-0.6c0.6-0.3,1.4-0.1,1.8,0.5l0.5,0.8c0.2,0.3,0.2,0.7,0.1,1
		s-0.3,0.6-0.6,0.8l-1,0.6l0.1,0.5C16,9.5,16,9.7,16,10s0,0.5-0.1,0.9l-0.1,0.5l1,0.6c0.3,0.2,0.5,0.5,0.6,0.8S17.5,13.4,17.3,13.7z
		"/>
</g>
</svg>
