<?xml version="1.0" encoding="utf-8"?>
<!-- Generator: Adobe Illustrator 18.0.0, SVG Export Plug-In . SVG Version: 6.00 Build 0)  -->
<!DOCTYPE svg PUBLIC "-//W3C//DTD SVG 1.1//EN" "http://www.w3.org/Graphics/SVG/1.1/DTD/svg11.dtd">
<svg version="1.1" id="图层_1" xmlns="http://www.w3.org/2000/svg" xmlns:xlink="http://www.w3.org/1999/xlink" x="0px" y="0px"
	 viewBox="0 0 20 20" enable-background="new 0 0 20 20" xml:space="preserve">
<g>
	<path d="M17.6,2.7H2.4C1.6,2.7,1,3.3,1,4.1v0.8c0,0.8,0.6,1.4,1.4,1.4h15.2c0.8,0,1.4-0.6,1.4-1.4V4.1C19,3.3,18.4,2.7,17.6,2.7z"
		/>
	<path d="M14.8,8.7H5.2C4.5,8.7,4,9.2,4,9.9v0.6c0,0.7,0.5,1.2,1.2,1.2h9.6c0.7,0,1.2-0.5,1.2-1.2V9.9C16,9.2,15.5,8.7,14.8,8.7z"/>
	<path d="M11.5,14.5h-3c-0.5,0-1,0.5-1,1v0.8c0,0.5,0.5,1,1,1h3c0.5,0,1-0.5,1-1v-0.8C12.5,14.9,12,14.5,11.5,14.5z"/>
</g>
</svg>
