<?xml version="1.0" encoding="utf-8"?>
<!-- Generator: Adobe Illustrator 21.0.0, SVG Export Plug-In . SVG Version: 6.00 Build 0)  -->
<svg version="1.1" id="图层_1" xmlns="http://www.w3.org/2000/svg" xmlns:xlink="http://www.w3.org/1999/xlink" x="0px" y="0px"
	 viewBox="0 0 20 20" style="enable-background:new 0 0 20 20;" xml:space="preserve">
<g>
	<path d="M12.3,13.9l-2.9-0.8c-0.2,0-0.3-0.1-0.4-0.3l0,0c1-0.6,1.6-1.7,1.6-2.9V7.8c0-1.9-1.5-3.4-3.5-3.4c-1.8,0-3.3,1.5-3.3,3.3
		v2.3c0,1.2,0.6,2.3,1.6,2.8l0,0c-0.1,0.1-0.3,0.2-0.4,0.2l-2.8,0.8c-0.9,0.2-1.5,1-1.5,1.9v0.6c0,0.7,0.6,1.2,1.2,1.2h10.7
		c0.7,0,1.2-0.6,1.2-1.2v-0.6C13.8,14.9,13.2,14.1,12.3,13.9z M4.8,7.7c0-1.3,1.1-2.3,2.4-2.3c1.3,0,2.4,1.1,2.4,2.4V10
		c0,1.3-1.1,2.4-2.4,2.4H7.1c-1.3,0-2.3-1.1-2.3-2.3V7.7z M12.8,16.4c0,0.1-0.1,0.2-0.2,0.2H1.9c-0.1,0-0.2-0.1-0.2-0.2v-0.6
		c0-0.4,0.3-0.8,0.7-0.9l2.8-0.8c0.3-0.1,0.6-0.3,0.9-0.5l0.3-0.3c0.2,0.1,0.5,0.1,0.7,0.1h0.1c0.3,0,0.5,0,0.8-0.1l0.3,0.3
		c0.2,0.2,0.6,0.4,0.9,0.5l2.9,0.8c0.4,0.1,0.7,0.5,0.7,0.9V16.4z"/>
	<path d="M17.9,2.9h-5.4c-0.5,0-1,0.6-1,1.3v2.3c0,0.7,0.4,1.3,1,1.3H13l0.2,0.9l1-0.9h3.6c0.5,0,1-0.6,1-1.3V4.2
		C18.9,3.5,18.4,2.9,17.9,2.9z M14.1,5.9c-0.4,0-0.7-0.3-0.7-0.7s0.3-0.7,0.7-0.7s0.7,0.3,0.7,0.7S14.4,5.9,14.1,5.9z M16.7,5.7
		C16.4,6,16,5.9,15.8,5.6c-0.2-0.3-0.2-0.7,0.1-0.9s0.7-0.2,0.9,0.1C17.1,5.1,17,5.5,16.7,5.7z"/>
</g>
</svg>
