<?xml version="1.0" encoding="utf-8"?>
<!-- Generator: Adobe Illustrator 18.0.0, SVG Export Plug-In . SVG Version: 6.00 Build 0)  -->
<!DOCTYPE svg PUBLIC "-//W3C//DTD SVG 1.1//EN" "http://www.w3.org/Graphics/SVG/1.1/DTD/svg11.dtd">
<svg version="1.1" id="图层_1" xmlns="http://www.w3.org/2000/svg" xmlns:xlink="http://www.w3.org/1999/xlink" x="0px" y="0px"
	 viewBox="0 0 16 16" enable-background="new 0 0 16 16" xml:space="preserve">
<path d="M14.3,1.1c-0.4,0-0.7,0.3-0.7,0.7v5.6c0,1.8-1.5,3.3-3.3,3.3H5.9V8.8c0-0.5-0.4-1-1-1C4.7,7.8,4.4,7.9,4.3,8l-3,2.6
	C1.1,10.8,1,11,1,11.3s0.1,0.6,0.3,0.7l3,2.6c0.2,0.2,0.4,0.2,0.7,0.2c0.6,0,1-0.4,1-1V12h4.3c2.6,0,4.7-2.1,4.7-4.6V1.8
	C15,1.4,14.6,1.1,14.3,1.1z"/>
</svg>
