<?xml version="1.0" encoding="utf-8"?>
<!-- Generator: Adobe Illustrator 18.0.0, SVG Export Plug-In . SVG Version: 6.00 Build 0)  -->
<!DOCTYPE svg PUBLIC "-//W3C//DTD SVG 1.1//EN" "http://www.w3.org/Graphics/SVG/1.1/DTD/svg11.dtd">
<svg version="1.1" id="图层_1" xmlns="http://www.w3.org/2000/svg" xmlns:xlink="http://www.w3.org/1999/xlink" x="0px" y="0px"
	 viewBox="0 0 18 18" enable-background="new 0 0 18 18" xml:space="preserve">
<path d="M9,0C4,0,0,4,0,9s4,9,9,9s9-4,9-9S14,0,9,0z M9,14.6c-0.4,0-0.7-0.3-0.7-0.7c0-0.4,0.3-0.7,0.7-0.7s0.7,0.3,0.7,0.7
	C9.7,14.3,9.4,14.6,9,14.6z M10.9,9.5c-0.4,0.3-0.9,0.7-1,0.9c-0.2,0.3-0.3,0.6-0.3,1c0,0.4-0.3,0.7-0.7,0.7s-0.7-0.3-0.7-0.7
	c0-0.6,0.1-1.2,0.4-1.7c0.3-0.6,1.2-1.2,1.4-1.3C10.7,8,11,7.4,11,6.8c0-1.1-0.9-2-2-2s-2,0.9-2,2c0,0.4-0.3,0.7-0.7,0.7
	S5.6,7.2,5.6,6.8c0-1.9,1.5-3.4,3.4-3.4s3.4,1.5,3.4,3.4C12.4,7.9,11.8,8.9,10.9,9.5z"/>
</svg>
