<?xml version="1.0" encoding="utf-8"?>
<!-- Generator: Adobe Illustrator 18.0.0, SVG Export Plug-In . SVG Version: 6.00 Build 0)  -->
<!DOCTYPE svg PUBLIC "-//W3C//DTD SVG 1.1//EN" "http://www.w3.org/Graphics/SVG/1.1/DTD/svg11.dtd">
<svg version="1.1" id="图层_1" xmlns="http://www.w3.org/2000/svg" xmlns:xlink="http://www.w3.org/1999/xlink" x="0px" y="0px"
	 viewBox="0 0 20 20" enable-background="new 0 0 20 20" xml:space="preserve">
<g>
	<path d="M15.6,13.2c-0.4,0-0.7,0.3-0.7,0.7v2.2c0,0.7-0.6,1.3-1.3,1.3H3.2c-0.7,0-1.3-0.6-1.3-1.3V5.7C2,5,2.5,4.4,3.2,4.4h10.1
		c0.4,0,0.7-0.3,0.7-0.7S13.7,3,13.3,3H3.2C1.8,3,0.5,4.2,0.5,5.7v10.4c0,1.5,1.2,2.7,2.7,2.7h10.4c1.5,0,2.7-1.2,2.7-2.7v-2.2
		C16.3,13.5,16,13.2,15.6,13.2z"/>
	<path d="M16,5.7c-0.2-0.2-0.4-0.2-0.6,0l-7.5,7.5c-0.1,0.1-0.2,0.3-0.3,0.5l-0.5,2.2c-0.1,0.3,0.2,0.5,0.5,0.5l2.2-0.5
		c0.2,0,0.4-0.1,0.5-0.3L17.8,8c0.2-0.2,0.2-0.4,0-0.6L16,5.7z"/>
	<path d="M19.2,4.2c-0.7-0.7-1.7-0.7-2.4,0l-0.2,0.2c-0.2,0.2-0.2,0.4,0,0.6l1.8,1.8C18.6,7,18.8,7,19,6.8l0.2-0.2
		C19.9,5.9,19.9,4.9,19.2,4.2z"/>
</g>
</svg>
