<?xml version="1.0" encoding="utf-8"?>
<!-- Generator: Adobe Illustrator 18.0.0, SVG Export Plug-In . SVG Version: 6.00 Build 0)  -->
<!DOCTYPE svg PUBLIC "-//W3C//DTD SVG 1.1//EN" "http://www.w3.org/Graphics/SVG/1.1/DTD/svg11.dtd">
<svg version="1.1" id="图层_1" xmlns="http://www.w3.org/2000/svg" xmlns:xlink="http://www.w3.org/1999/xlink" x="0px" y="0px"
	 viewBox="0 0 20 20" enable-background="new 0 0 20 20" xml:space="preserve">
<path fill="#767B80" d="M5.6,2"/>
<path d="M10,1c-5,0-9,4-9,9s4,9,9,9s9-4,9-9S15,1,10,1z M14.2,13.4c0.2,0.2,0.2,0.6,0,0.8c-0.1,0.1-0.3,0.2-0.4,0.2
	s-0.3-0.1-0.4-0.2L10,10.8l-3.4,3.4c-0.1,0.1-0.3,0.2-0.4,0.2c-0.2,0-0.3-0.1-0.4-0.2c-0.2-0.2-0.2-0.6,0-0.8L9.2,10L5.8,6.6
	C5.5,6.4,5.5,6,5.8,5.8c0.2-0.2,0.6-0.2,0.8,0L10,9.2l3.4-3.4c0.2-0.2,0.6-0.2,0.8,0s0.2,0.6,0,0.8L10.8,10L14.2,13.4z"/>
</svg>
