<?xml version="1.0" standalone="no"?><!DOCTYPE svg PUBLIC "-//W3C//DTD SVG 1.1//EN" "http://www.w3.org/Graphics/SVG/1.1/DTD/svg11.dtd"><svg t="1540550530433" class="icon" style="" viewBox="0 0 1024 1024" version="1.1" xmlns="http://www.w3.org/2000/svg" p-id="1066" xmlns:xlink="http://www.w3.org/1999/xlink" width="64" height="64"><defs><style type="text/css"></style></defs><path d="M510.545 28.22c-267.043 0-483.521 216.477-483.521 483.52s216.479 483.521 483.521 483.521 483.52-216.479 483.52-483.521S777.588 28.22 510.545 28.22zM776.855 407.855l-315.37 315.37c-9.763 9.763-22.559 14.645-35.355 14.645-12.796 0-25.592-4.882-35.355-14.645l-176.13-176.13c-19.526-19.525-19.526-51.184 0-70.71 19.526-19.526 51.184-19.527 70.711 0L426.13 617.159l280.015-280.015c19.527-19.526 51.184-19.526 70.711 0C796.382 356.671 796.382 388.329 776.855 407.855z" p-id="1067"></path></svg>